<svg width="36" height="37" viewBox="0 0 36 37" fill="none" xmlns="http://www.w3.org/2000/svg">
<path d="M0.602301 34.4614H2.40217V36.2613C2.40217 36.5926 2.67081 36.8612 3.00213 36.8612H28.2003C28.5317 36.8612 28.8003 36.5926 28.8003 36.2613V33.8614H27.6004V35.6613H3.60209V34.4614H17.4011V33.2615H1.20226V7.4633H6.00192C6.33324 7.4633 6.60187 7.19467 6.60187 6.86334V2.06368H25.2006V13.4629H26.4005V4.46351H27.6004V14.6628H28.8003V3.86356C28.8003 3.53223 28.5317 3.2636 28.2003 3.2636H26.4005V1.46373C26.4005 1.1324 26.1318 0.86377 25.8005 0.86377H6.00192C5.98991 0.86377 5.97907 0.869921 5.96706 0.871093C5.91257 0.87373 5.85867 0.884569 5.80711 0.902732C5.78924 0.908005 5.77195 0.91445 5.75467 0.92148C5.68905 0.950189 5.62899 0.990909 5.57773 1.0413L0.178112 6.44091C0.128018 6.49189 0.0872985 6.55165 0.0582967 6.61697C0.0498011 6.63543 0.0451139 6.65418 0.0383762 6.67322C0.0210923 6.72302 0.0108391 6.77487 0.00790961 6.82731C0.00790961 6.84049 0 6.85192 0 6.8651V33.8614C0 34.0211 0.0635697 34.174 0.176648 34.2865C0.289726 34.3993 0.442937 34.462 0.602301 34.4614ZM5.40196 2.91206V6.26339H2.05064L5.40196 2.91206Z" fill="#B9B9B9"/>
<path d="M18.6028 14.0627V13.4628H23.4025V10.463C23.4013 9.53169 22.6894 8.75509 21.7617 8.67277C21.7089 8.66603 21.6559 8.66281 21.6026 8.6631H4.80378C3.80981 8.6631 3.00391 9.469 3.00391 10.463V29.6616C3.00391 30.6559 3.80981 31.4615 4.80378 31.4615H13.8031V30.2616H7.80357V28.4617H12.6032V27.2618H7.80357V25.4619H12.0033V24.262H7.80357V22.4621H12.1234V21.2622H7.80357V19.4623H13.2032V18.2624H7.80357V16.4626H15.603V15.2626H7.80357V13.4628H17.4029V14.0627H18.6028ZM21.6518 9.86741C21.9629 9.89114 22.2031 10.151 22.2025 10.463V12.2628H18.6028V9.85892H21.5774C21.602 9.86331 21.6269 9.86595 21.6518 9.86741ZM4.80378 9.86302H6.60365V12.2628H4.20382V10.463C4.20382 10.1317 4.47245 9.86302 4.80378 9.86302ZM6.60365 30.2616H4.80378C4.47245 30.2616 4.20382 29.9929 4.20382 29.6616V28.4617H6.60365V30.2616ZM6.60365 27.2618H4.20382V25.4619H6.60365V27.2618ZM6.60365 24.262H4.20382V22.4621H6.60365V24.262ZM6.60365 21.2622H4.20382V19.4623H6.60365V21.2622ZM6.60365 18.2624H4.20382V16.4626H6.60365V18.2624ZM6.60365 15.2626H4.20382V13.4628H6.60365V15.2626ZM7.80357 12.2628V9.86302L17.4029 9.86009V12.2628H7.80357Z" fill="#B9B9B9"/>
<path d="M9 6.26318H13.7997V7.4631H9V6.26318Z" fill="#B9B9B9"/>
<path d="M15 6.26318H17.3998V7.4631H15V6.26318Z" fill="#B9B9B9"/>
<path d="M9 3.86377H17.3994V5.06368H9V3.86377Z" fill="#B9B9B9"/>
<path d="M31.0251 29.2374L30.9483 29.3142C33.5734 25.0949 32.5604 19.5713 28.6088 16.5581C24.6572 13.5445 19.0625 14.0293 15.6881 17.6774C12.3136 21.3255 12.2656 26.941 15.5773 30.6459C18.8891 34.3511 24.4747 34.9315 28.477 31.9859L32.8038 36.3127C33.5353 37.0442 34.7209 37.0442 35.4521 36.3127C36.1836 35.5815 36.1836 34.396 35.4521 33.6648L31.0251 29.2374ZM14.402 24.262C14.402 19.6232 18.1626 15.8626 22.8014 15.8626C27.4403 15.8626 31.2008 19.6232 31.2008 24.262C31.2008 28.9008 27.4403 32.6614 22.8014 32.6614C18.1646 32.6564 14.407 28.8988 14.402 24.262ZM34.128 35.6612C33.9496 35.6618 33.7785 35.5909 33.6522 35.4646L29.401 31.2137C29.7276 30.9049 30.032 30.5736 30.3123 30.222L34.6031 34.5129C34.7956 34.7053 34.8533 34.9945 34.7493 35.2458C34.6453 35.4972 34.4001 35.6612 34.128 35.6612Z" fill="#B9B9B9"/>
<path d="M22.8011 17.0625C18.8249 17.0625 15.6016 20.2858 15.6016 24.262C15.6016 28.2382 18.8249 31.4615 22.8011 31.4615C26.7772 31.4615 30.0005 28.2382 30.0005 24.262C29.9964 20.2876 26.7755 17.0669 22.8011 17.0625ZM20.4012 24.262C20.4012 22.9367 21.4758 21.8622 22.8011 21.8622C24.1266 21.8622 25.2009 22.9367 25.2009 24.262C25.2009 25.5876 24.1266 26.6618 22.8011 26.6618C21.4758 26.6618 20.4012 25.5876 20.4012 24.262ZM19.7034 26.0865C18.6731 25.6916 17.7456 25.0679 16.9916 24.262C17.7456 23.4564 18.6731 22.8324 19.7034 22.4375C19.034 23.5618 19.034 24.9624 19.7034 26.0865ZM25.8987 22.4375C26.9293 22.8324 27.8565 23.4564 28.6105 24.262C27.8565 25.0679 26.9293 25.6916 25.8987 26.0865C26.5681 24.9624 26.5681 23.5618 25.8987 22.4375ZM22.8011 18.2624C25.4692 18.2656 27.8151 20.0289 28.5607 22.5907C27.0151 21.3958 25.1274 20.7267 23.1743 20.6816C22.9273 20.6558 22.6786 20.6558 22.4316 20.6816C20.4771 20.7261 18.5882 21.3949 17.0414 22.5907C17.787 20.0289 20.1332 18.2656 22.8011 18.2624ZM22.8011 30.2616C20.1332 30.2583 17.787 28.4954 17.0414 25.9335C18.5873 27.1285 20.4748 27.7973 22.4278 27.8427C22.6748 27.8682 22.9238 27.8682 23.1708 27.8427C25.125 27.7982 27.0139 27.1291 28.5607 25.9335C27.8151 28.4954 25.4692 30.2583 22.8011 30.2616Z" fill="#B9B9B9"/>
<path d="M24.0014 24.2619C24.0014 24.9246 23.4641 25.4618 22.8015 25.4618C22.1388 25.4618 21.6016 24.9246 21.6016 24.2619C21.6016 23.5993 22.1388 23.062 22.8015 23.062C23.4641 23.062 24.0014 23.5993 24.0014 24.2619Z" fill="#B9B9B9"/>
</svg>
