<svg width="31" height="41" viewBox="0 0 31 41" fill="none" xmlns="http://www.w3.org/2000/svg">
<path fill-rule="evenodd" clip-rule="evenodd" d="M6.01877 14.042C6.42468 14.1762 6.86233 13.9562 6.99622 13.5502C8.21094 9.87646 11.6284 7.40833 15.5005 7.40833C20.4382 7.40833 24.4557 11.4255 24.4557 16.3635C24.4557 20.18 22.7462 22.4601 21.3728 24.2923C20.3736 25.6249 19.5107 26.7762 19.5107 28.1722C19.5107 28.2641 19.5094 28.3551 19.5073 28.4455H16.2742V26.668C16.2742 26.2406 15.9278 25.8942 15.5005 25.8942C15.0731 25.8942 14.7267 26.2406 14.7267 26.668V28.4455H11.4933C11.4912 28.3551 11.49 28.2641 11.49 28.1722C11.49 26.7759 10.6271 25.6249 9.62787 24.292C8.61625 22.9425 7.46984 21.4128 6.90132 19.2394C6.79312 18.8259 6.36997 18.5784 5.95681 18.6866C5.54364 18.7945 5.2961 19.2176 5.4043 19.6308C6.04959 22.098 7.34713 23.8293 8.38987 25.2202C9.25731 26.3775 9.9425 27.2915 9.9425 28.1722C9.9425 28.5428 9.95822 28.9043 9.98875 29.2491V35.7939C9.98875 35.8148 9.99026 35.835 9.99177 35.8553C9.99237 35.8601 9.99207 35.8652 9.99268 35.8701C9.9954 35.8988 9.99993 35.9266 10.0057 35.9544V35.955C10.2744 37.2154 10.9623 38.3615 11.9434 39.1821C12.9432 40.0187 14.2066 40.4793 15.5005 40.4793C16.7944 40.4793 18.0575 40.0187 19.0576 39.1821C20.0384 38.3615 20.7266 37.2154 20.995 35.955C20.995 35.9547 20.9953 35.9544 20.9953 35.9541C21.001 35.9266 21.0053 35.8988 21.0083 35.8701C21.0086 35.8652 21.0086 35.8601 21.0089 35.8553C21.0104 35.8347 21.0119 35.8145 21.0119 35.7936V29.2491C21.0424 28.9043 21.0584 28.5428 21.0584 28.1722C21.0584 27.2915 21.7436 26.3775 22.6111 25.2202C24.0425 23.3106 26.0032 20.6956 26.0032 16.3635C26.0032 10.5722 21.2915 5.86084 15.5005 5.86084C10.9596 5.86084 6.95179 8.75574 5.52701 13.0645C5.39282 13.4701 5.61315 13.9078 6.01877 14.042ZM15.5005 38.9318C13.9273 38.9318 12.5086 37.9804 11.8364 36.5674H19.1646C18.4921 37.9804 17.0734 38.9318 15.5005 38.9318ZM19.4647 35.0199H11.5362V33.2802H19.4647V35.0199ZM19.4647 31.7327H11.5362V29.9929H19.4647V31.7327Z" fill="#B9B9B9"/>
<path fill-rule="evenodd" clip-rule="evenodd" d="M15.5003 4.47287C15.9277 4.47287 16.2741 4.1265 16.2741 3.69912V1.63752C16.2741 1.21014 15.9277 0.86377 15.5003 0.86377C15.0729 0.86377 14.7266 1.21014 14.7266 1.63752V3.69912C14.7266 4.1265 15.0729 4.47287 15.5003 4.47287Z" fill="#B9B9B9"/>
<path fill-rule="evenodd" clip-rule="evenodd" d="M0.773746 17.1373H2.83535C3.26273 17.1373 3.6091 16.791 3.6091 16.3636C3.6091 15.9362 3.26273 15.5898 2.83535 15.5898H0.773746C0.346372 15.5898 0 15.9362 0 16.3636C0 16.791 0.346372 17.1373 0.773746 17.1373Z" fill="#B9B9B9"/>
<path fill-rule="evenodd" clip-rule="evenodd" d="M19.0422 17.9271C19.0422 17.4997 18.6959 17.1533 18.2685 17.1533H12.7308C12.3034 17.1533 11.957 17.4997 11.957 17.9271C11.957 18.3544 12.3034 18.7008 12.7308 18.7008H14.7259V20.4783C14.7259 20.9057 15.0723 21.2521 15.4996 21.2521C15.927 21.2521 16.2734 20.9057 16.2734 20.4783V18.7008H18.2685C18.6959 18.7008 19.0422 18.3544 19.0422 17.9271Z" fill="#B9B9B9"/>
<path fill-rule="evenodd" clip-rule="evenodd" d="M5.99698 7.95578C6.14811 8.1069 6.34608 8.18246 6.54405 8.18246C6.74202 8.18246 6.93999 8.1069 7.09111 7.95578C7.39335 7.65353 7.39335 7.1636 7.09111 6.86165L5.63338 5.40393C5.33114 5.10168 4.8412 5.10168 4.53896 5.40393C4.23701 5.70587 4.23701 6.19581 4.53896 6.49805L5.99698 7.95578Z" fill="#B9B9B9"/>
<path fill-rule="evenodd" clip-rule="evenodd" d="M4.55507 28.0843C4.75304 28.0843 4.95101 28.0088 5.10213 27.8576L6.55986 26.3999C6.8621 26.0977 6.8621 25.608 6.55986 25.3058C6.25761 25.0035 5.76768 25.0035 5.46573 25.3058L4.00771 26.7635C3.70576 27.0658 3.70576 27.5557 4.00771 27.8576C4.15883 28.0088 4.3568 28.0843 4.55507 28.0843Z" fill="#B9B9B9"/>
<path fill-rule="evenodd" clip-rule="evenodd" d="M24.4535 8.18216C24.6514 8.18216 24.8494 8.1066 25.0005 7.95548L26.4583 6.49775C26.7605 6.19551 26.7605 5.70557 26.4583 5.40333C26.1563 5.10108 25.6664 5.10139 25.3641 5.40333L23.9064 6.86105C23.6042 7.1633 23.6042 7.65324 23.9061 7.95548C24.0572 8.1066 24.2555 8.18216 24.4535 8.18216Z" fill="#B9B9B9"/>
<path fill-rule="evenodd" clip-rule="evenodd" d="M24.4415 25.3058C24.1393 25.6077 24.1393 26.0977 24.4415 26.3999L25.8993 27.8576C26.0504 28.0088 26.2483 28.0843 26.4463 28.0843C26.6443 28.0843 26.8423 28.0088 26.9934 27.8576C27.2956 27.5557 27.2956 27.0658 26.9934 26.7635L25.5357 25.3058C25.2334 25.0035 24.7435 25.0035 24.4415 25.3058Z" fill="#B9B9B9"/>
<path fill-rule="evenodd" clip-rule="evenodd" d="M28.1644 17.1373H30.226C30.6534 17.1373 30.9997 16.791 30.9997 16.3636C30.9997 15.9362 30.6534 15.5898 30.226 15.5898H28.1644C27.737 15.5898 27.3906 15.9362 27.3906 16.3636C27.3906 16.791 27.737 17.1373 28.1644 17.1373Z" fill="#B9B9B9"/>
<path fill-rule="evenodd" clip-rule="evenodd" d="M15.5003 22.7993C15.0741 22.7993 14.7266 23.1469 14.7266 23.5731C14.7266 23.9992 15.0741 24.3468 15.5003 24.3468C15.9265 24.3468 16.2741 23.9992 16.2741 23.5731C16.2741 23.1469 15.9265 22.7993 15.5003 22.7993Z" fill="#B9B9B9"/>
<path fill-rule="evenodd" clip-rule="evenodd" d="M6.54359 16.3636C6.54359 15.9374 6.196 15.5898 5.76984 15.5898C5.34337 15.5898 4.99609 15.9374 4.99609 16.3636C4.99609 16.7898 5.34337 17.1373 5.76984 17.1373C6.196 17.1373 6.54359 16.7898 6.54359 16.3636Z" fill="#B9B9B9"/>
</svg>
