<svg width="41" height="34" viewBox="0 0 41 34" fill="none" xmlns="http://www.w3.org/2000/svg">
<path d="M37.7969 0.348145H3.20312C2.52378 0.349034 1.87252 0.619297 1.39215 1.09967C0.911778 1.58004 0.641515 2.2313 0.640625 2.91064V24.6919C0.641515 25.3712 0.911778 26.0225 1.39215 26.5029C1.87252 26.9832 2.52378 27.2535 3.20312 27.2544H16.408L15.5536 29.8169H13.4531C13.2832 29.8169 13.1203 29.8844 13.0001 30.0045C12.88 30.1247 12.8125 30.2876 12.8125 30.4575V31.7388H7.04688C6.87697 31.7388 6.71403 31.8063 6.59388 31.9264C6.47374 32.0465 6.40625 32.2095 6.40625 32.3794C6.40625 32.5493 6.47374 32.7122 6.59388 32.8324C6.71403 32.9525 6.87697 33.02 7.04688 33.02H35.2344C35.4043 33.02 35.5672 32.9525 35.6874 32.8324C35.8075 32.7122 35.875 32.5493 35.875 32.3794C35.875 32.2095 35.8075 32.0465 35.6874 31.9264C35.5672 31.8063 35.4043 31.7388 35.2344 31.7388H28.1875V30.4575C28.1875 30.2876 28.12 30.1247 27.9999 30.0045C27.8797 29.8844 27.7168 29.8169 27.5469 29.8169H25.4464L24.592 27.2544H37.7969C38.4762 27.2535 39.1275 26.9832 39.6079 26.5029C40.0882 26.0225 40.3585 25.3712 40.3594 24.6919V2.91064C40.3585 2.2313 40.0882 1.58004 39.6079 1.09967C39.1275 0.619297 38.4762 0.349034 37.7969 0.348145ZM26.9062 31.0981V31.7388H14.0938V31.0981H26.9062ZM16.9045 29.8169L17.7589 27.2544H23.2411L24.0955 29.8169H16.9045ZM39.0781 24.6919C39.0777 25.0316 38.9426 25.3572 38.7024 25.5974C38.4622 25.8376 38.1365 25.9727 37.7969 25.9731H3.20312C2.86345 25.9727 2.53782 25.8376 2.29764 25.5974C2.05745 25.3572 1.92232 25.0316 1.92188 24.6919V23.4106H39.0781V24.6919ZM11.504 16.3638L11.2638 22.1294H10.5175L10.2772 16.3638H11.504ZM10.3653 15.0825L10.7929 12.52H10.9883L11.4159 15.0825H10.3653ZM10.8906 11.2388C10.1963 11.2388 9.60938 10.3587 9.60938 9.31689C9.60938 8.65945 10.2804 7.70412 10.889 7.03066C11.4376 7.63926 12.1719 8.61221 12.1719 9.31689C12.1719 10.3587 11.5849 11.2388 10.8906 11.2388ZM17.8622 9.95752L17.9375 10.1089V10.5981H15.375V10.1089L15.4503 9.95752H17.8622ZM16.0909 8.67627L16.6562 7.54637L17.2216 8.67627H16.0909ZM17.9375 11.8794V22.0493C17.9377 22.0761 17.9396 22.1028 17.9431 22.1294H15.3694C15.3729 22.1028 15.3748 22.0761 15.375 22.0493V11.8794H17.9375ZM23.7031 9.31689H25.625V10.5981H24.9844C24.8145 10.5981 24.6515 10.6656 24.5314 10.7858C24.4112 10.9059 24.3438 11.0689 24.3438 11.2388C24.3438 11.4087 24.4112 11.5716 24.5314 11.6918C24.6515 11.8119 24.8145 11.8794 24.9844 11.8794H25.625V13.1606H23.7031C23.5332 13.1606 23.3703 13.2281 23.2501 13.3483C23.13 13.4684 23.0625 13.6314 23.0625 13.8013C23.0625 13.9712 23.13 14.1341 23.2501 14.2543C23.3703 14.3744 23.5332 14.4419 23.7031 14.4419H25.625V15.7231H24.9844C24.8145 15.7231 24.6515 15.7906 24.5314 15.9108C24.4112 16.0309 24.3438 16.1939 24.3438 16.3638C24.3438 16.5337 24.4112 16.6966 24.5314 16.8168C24.6515 16.9369 24.8145 17.0044 24.9844 17.0044H25.625V18.2856H23.7031C23.5332 18.2856 23.3703 18.3531 23.2501 18.4733C23.13 18.5934 23.0625 18.7564 23.0625 18.9263C23.0625 19.0962 23.13 19.2591 23.2501 19.3793C23.3703 19.4994 23.5332 19.5669 23.7031 19.5669H25.625V22.1294H21.1406V6.75439H25.625V8.03564H23.7031C23.5332 8.03564 23.3703 8.10314 23.2501 8.22328C23.13 8.34342 23.0625 8.50636 23.0625 8.67627C23.0625 8.84617 23.13 9.00912 23.2501 9.12926C23.3703 9.2494 23.5332 9.31689 23.7031 9.31689ZM31.3906 17.0044V22.0493C31.3909 22.0761 31.3927 22.1028 31.3962 22.1294H28.8225C28.826 22.1028 28.8279 22.0761 28.8281 22.0493V17.0044H31.3906ZM28.8281 15.7231V15.2339L30.1094 12.6714L31.3906 15.2339V15.7231H28.8281ZM39.0781 22.1294H32.6663C32.6698 22.1028 32.6716 22.0761 32.6719 22.0493V15.0825C32.6718 14.9831 32.6488 14.885 32.6046 14.7958L30.6827 10.9521C30.6294 10.8457 30.5475 10.7563 30.4463 10.6937C30.345 10.6312 30.2284 10.5981 30.1094 10.5981C29.9904 10.5981 29.8737 10.6312 29.7725 10.6937C29.6712 10.7563 29.5893 10.8457 29.536 10.9521L27.6141 14.7958C27.57 14.885 27.547 14.9831 27.5469 15.0825V22.0493C27.5471 22.0761 27.549 22.1028 27.5525 22.1294H26.9062V6.11377C26.9062 5.94387 26.8388 5.78092 26.7186 5.66078C26.5985 5.54064 26.4355 5.47314 26.2656 5.47314H20.5C20.3301 5.47314 20.1672 5.54064 20.047 5.66078C19.9269 5.78092 19.8594 5.94387 19.8594 6.11377V22.1294H19.2131C19.2166 22.1028 19.2185 22.0761 19.2188 22.0493V9.95752C19.2187 9.85806 19.1956 9.75996 19.1515 9.67084L17.2296 5.82709C17.1763 5.7207 17.0944 5.63125 16.9932 5.56874C16.8919 5.50623 16.7752 5.47312 16.6562 5.47312C16.5372 5.47312 16.4206 5.50623 16.3193 5.56874C16.2181 5.63125 16.1362 5.7207 16.0829 5.82709L14.161 9.67084C14.1169 9.75996 14.0938 9.85806 14.0938 9.95752V22.0493C14.094 22.0761 14.0959 22.1028 14.0994 22.1294H12.5458L12.8117 15.7496C12.8125 15.7352 12.8117 15.7207 12.8117 15.7055V15.6863C12.8102 15.6638 12.8075 15.6413 12.8037 15.619V15.6174L12.2111 12.0612C12.955 11.4998 13.4531 10.4796 13.4531 9.31689C13.4531 7.67049 11.5449 5.84711 11.3271 5.64451C11.2084 5.53449 11.0525 5.47335 10.8906 5.47335C10.7288 5.47335 10.5729 5.53449 10.4542 5.64451C10.2364 5.84711 8.32812 7.67049 8.32812 9.31689C8.32812 10.4796 8.82621 11.4998 9.57014 12.0612L8.97756 15.6174V15.619C8.97371 15.6413 8.97103 15.6638 8.96955 15.6863V15.7055C8.96955 15.7207 8.96875 15.7352 8.96955 15.7496L9.23541 22.1294H1.92188V2.91064C1.92232 2.57097 2.05745 2.24534 2.29764 2.00516C2.53782 1.76497 2.86345 1.62984 3.20312 1.62939H37.7969C38.1365 1.62984 38.4622 1.76497 38.7024 2.00516C38.9426 2.24534 39.0777 2.57097 39.0781 2.91064V22.1294Z" fill="#B9B9B9"/>
<path d="M7.6875 24.0513H3.84375C3.67385 24.0513 3.5109 24.1188 3.39076 24.2389C3.27062 24.359 3.20312 24.522 3.20312 24.6919C3.20312 24.8618 3.27062 25.0247 3.39076 25.1449C3.5109 25.265 3.67385 25.3325 3.84375 25.3325H7.6875C7.8574 25.3325 8.02035 25.265 8.14049 25.1449C8.26063 25.0247 8.32812 24.8618 8.32812 24.6919C8.32812 24.522 8.26063 24.359 8.14049 24.2389C8.02035 24.1188 7.8574 24.0513 7.6875 24.0513Z" fill="#B9B9B9"/>
<path d="M10.25 24.0513H9.60938C9.43947 24.0513 9.27653 24.1188 9.15638 24.2389C9.03624 24.359 8.96875 24.522 8.96875 24.6919C8.96875 24.8618 9.03624 25.0247 9.15638 25.1449C9.27653 25.265 9.43947 25.3325 9.60938 25.3325H10.25C10.4199 25.3325 10.5829 25.265 10.703 25.1449C10.8231 25.0247 10.8906 24.8618 10.8906 24.6919C10.8906 24.522 10.8231 24.359 10.703 24.2389C10.5829 24.1188 10.4199 24.0513 10.25 24.0513Z" fill="#B9B9B9"/>
<path d="M16.6562 12.52C16.4863 12.52 16.3234 12.5875 16.2033 12.7077C16.0831 12.8278 16.0156 12.9907 16.0156 13.1606V20.2075C16.0156 20.3774 16.0831 20.5404 16.2033 20.6605C16.3234 20.7807 16.4863 20.8481 16.6562 20.8481C16.8262 20.8481 16.9891 20.7807 17.1092 20.6605C17.2294 20.5404 17.2969 20.3774 17.2969 20.2075V13.1606C17.2969 12.9907 17.2294 12.8278 17.1092 12.7077C16.9891 12.5875 16.8262 12.52 16.6562 12.52Z" fill="#B9B9B9"/>
<path d="M30.1094 17.645C29.9395 17.645 29.7765 17.7125 29.6564 17.8327C29.5362 17.9528 29.4688 18.1157 29.4688 18.2856V20.2075C29.4688 20.3774 29.5362 20.5404 29.6564 20.6605C29.7765 20.7807 29.9395 20.8481 30.1094 20.8481C30.2793 20.8481 30.4422 20.7807 30.5624 20.6605C30.6825 20.5404 30.75 20.3774 30.75 20.2075V18.2856C30.75 18.1157 30.6825 17.9528 30.5624 17.8327C30.4422 17.7125 30.2793 17.645 30.1094 17.645Z" fill="#B9B9B9"/>
<path d="M3.84375 4.19189H8.96875C9.13865 4.19189 9.3016 4.1244 9.42174 4.00426C9.54188 3.88412 9.60938 3.72117 9.60938 3.55127C9.60938 3.38137 9.54188 3.21842 9.42174 3.09828C9.3016 2.97814 9.13865 2.91064 8.96875 2.91064H3.84375C3.67385 2.91064 3.5109 2.97814 3.39076 3.09828C3.27062 3.21842 3.20312 3.38137 3.20312 3.55127C3.20312 3.72117 3.27062 3.88412 3.39076 4.00426C3.5109 4.1244 3.67385 4.19189 3.84375 4.19189Z" fill="#B9B9B9"/>
<path d="M3.84375 6.11377H5.125C5.2949 6.11377 5.45785 6.04628 5.57799 5.92613C5.69813 5.80599 5.76562 5.64305 5.76562 5.47314C5.76562 5.30324 5.69813 5.14029 5.57799 5.02015C5.45785 4.90001 5.2949 4.83252 5.125 4.83252H3.84375C3.67385 4.83252 3.5109 4.90001 3.39076 5.02015C3.27062 5.14029 3.20312 5.30324 3.20312 5.47314C3.20312 5.64305 3.27062 5.80599 3.39076 5.92613C3.5109 6.04628 3.67385 6.11377 3.84375 6.11377Z" fill="#B9B9B9"/>
<path d="M34.5938 20.8481H37.1562C37.3262 20.8481 37.4891 20.7807 37.6092 20.6605C37.7294 20.5404 37.7969 20.3774 37.7969 20.2075C37.7969 20.0376 37.7294 19.8747 37.6092 19.7545C37.4891 19.6344 37.3262 19.5669 37.1562 19.5669H34.5938C34.4238 19.5669 34.2609 19.6344 34.1408 19.7545C34.0206 19.8747 33.9531 20.0376 33.9531 20.2075C33.9531 20.3774 34.0206 20.5404 34.1408 20.6605C34.2609 20.7807 34.4238 20.8481 34.5938 20.8481Z" fill="#B9B9B9"/>
<path d="M36.5156 18.9263H37.1562C37.3262 18.9263 37.4891 18.8588 37.6092 18.7386C37.7294 18.6185 37.7969 18.4555 37.7969 18.2856C37.7969 18.1157 37.7294 17.9528 37.6092 17.8327C37.4891 17.7125 37.3262 17.645 37.1562 17.645H36.5156C36.3457 17.645 36.1828 17.7125 36.0626 17.8327C35.9425 17.9528 35.875 18.1157 35.875 18.2856C35.875 18.4555 35.9425 18.6185 36.0626 18.7386C36.1828 18.8588 36.3457 18.9263 36.5156 18.9263Z" fill="#B9B9B9"/>
</svg>
