<svg width="37" height="38" viewBox="0 0 37 38" fill="none" xmlns="http://www.w3.org/2000/svg">
<path d="M36.4732 10.5746C36.4731 10.5746 36.4731 10.5746 36.4731 10.5746L36.4718 10.5734L34.0836 10.2327C33.7479 10.1848 33.5146 9.87396 33.5624 9.53829C33.5853 9.37698 33.6715 9.23147 33.8018 9.1337L35.732 7.68603C36.0033 7.48258 36.0583 7.09779 35.8548 6.82651L33.6446 3.87959C33.4412 3.6083 33.0564 3.55335 32.7851 3.7568L30.8555 5.20447C30.5854 5.40945 30.2003 5.35665 29.9953 5.08652C29.8958 4.95537 29.8531 4.78968 29.8769 4.62675L30.2182 2.23852C30.2663 1.90285 30.0333 1.59181 29.6977 1.54361C29.6974 1.54361 29.6972 1.54354 29.697 1.54354L26.0526 1.02291C25.717 0.97472 25.4058 1.20771 25.3576 1.54338C25.3576 1.54346 25.3576 1.54346 25.3576 1.54354L25.0163 3.93177C24.9685 4.26744 24.6576 4.50082 24.3219 4.45301C24.1606 4.43006 24.0151 4.34388 23.9173 4.21357L22.4703 2.28334C22.2668 2.01205 21.882 1.9571 21.6108 2.16055L19.7659 3.54499C18.9312 3.45627 18.0895 3.45627 17.2548 3.54499C11.7888 4.16975 7.5023 8.52889 6.96947 14.0047C6.95289 14.1785 6.94675 14.351 6.93816 14.5235H6.75398C6.46266 14.524 6.21179 14.7292 6.15354 15.0147L5.72931 17.0321L4.02992 15.8601C3.78603 15.6918 3.45665 15.7218 3.24714 15.9313L1.40531 17.7731C1.19611 17.9825 1.16618 18.3114 1.3341 18.5553L2.50059 20.2516L0.48256 20.6758C0.2003 20.7377 -0.000612539 20.9879 1.40319e-06 21.2769V23.7326C-0.000152082 24.023 0.203293 24.2738 0.487471 24.3337L2.5055 24.7579L1.33901 26.4542C1.1711 26.698 1.20103 27.027 1.41023 27.2364L3.25205 29.0782C3.46156 29.2877 3.79094 29.3177 4.03483 29.1494L5.73115 27.9799L6.15538 29.9979C6.21363 30.2833 6.4645 30.4885 6.75582 30.4891H9.21159C9.50198 30.4892 9.75278 30.2858 9.81264 30.0016L10.2369 27.9836L11.9332 29.1501C12.177 29.318 12.5059 29.288 12.7154 29.0788L13.6688 28.1223V29.872C13.6716 30.7455 14.1395 31.5512 14.8967 31.9865V35.3975C14.8967 36.7538 15.9962 37.8533 17.3525 37.8533H19.8082C21.1645 37.8533 22.264 36.7538 22.264 35.3975V31.9865C23.0212 31.5512 23.4891 30.7455 23.4919 29.872V27.4421C23.5085 26.4196 24.0434 25.4757 24.9119 24.936C25.4214 24.6054 25.9046 24.2359 26.3571 23.8309L25.5381 22.9161C25.1333 23.2789 24.7008 23.6096 24.2446 23.9051C23.0255 24.6703 22.2793 26.0028 22.264 27.4421V29.872C22.264 30.5502 21.7143 31.0999 21.0361 31.0999H16.1246C15.4464 31.0999 14.8967 30.5502 14.8967 29.872V27.3911C14.8825 25.9791 14.148 24.6723 12.9493 23.926C8.08324 20.8684 6.61714 14.4451 9.67473 9.57912C11.5718 6.55998 14.8826 4.72237 18.4483 4.70964C18.4392 4.73151 18.4312 4.75384 18.4244 4.77656C18.4016 4.93772 18.4438 5.10141 18.5417 5.23149L19.9887 7.16111C20.1413 7.35856 20.1559 7.62977 20.0256 7.84258C19.9 8.05669 19.6573 8.1735 19.4116 8.13789L17.0234 7.79654C16.6877 7.74842 16.3767 7.98149 16.3285 8.31708C16.3285 8.31731 16.3284 8.31754 16.3284 8.31777L15.8072 11.964C15.759 12.2996 15.9921 12.6107 16.3277 12.6589C16.3279 12.6589 16.3282 12.659 16.3284 12.659L18.7166 13.0003C19.0523 13.0481 19.2857 13.359 19.2379 13.6947C19.2149 13.856 19.1287 14.0015 18.9984 14.0993L17.0688 15.5463C16.7975 15.7498 16.7426 16.1346 16.946 16.4058L19.1562 19.3528C19.3597 19.6241 19.7445 19.679 20.0157 19.4756L21.946 18.0285C22.2175 17.8254 22.6023 17.8809 22.8053 18.1525C22.9025 18.2824 22.9443 18.4456 22.9215 18.6062L22.5808 20.9944C22.5326 21.33 22.7656 21.6412 23.1013 21.6894C23.1013 21.6894 23.1013 21.6894 23.1014 21.6894L26.7482 22.2107C26.7769 22.2143 26.8059 22.2162 26.8348 22.2162C27.1405 22.2166 27.3998 21.992 27.4432 21.6894L27.7839 19.3012C27.8318 18.9655 28.1426 18.7321 28.4783 18.78C28.6396 18.8029 28.7851 18.8891 28.8829 19.0194L30.3306 20.949C30.534 21.2203 30.9188 21.2752 31.1901 21.0718L34.137 18.8616C34.4083 18.6582 34.4633 18.2734 34.2598 18.0021L32.8127 16.0725C32.6609 15.8747 32.6462 15.604 32.7759 15.391C32.8988 15.174 33.1437 15.0565 33.3899 15.0963L35.7781 15.437C36.1137 15.4852 36.4249 15.2522 36.4731 14.9166C36.4731 14.9165 36.4731 14.9165 36.4731 14.9164L36.9937 11.2696C37.0419 10.9339 36.8089 10.6228 36.4732 10.5746ZM16.1246 32.3278H21.0361V33.5557H16.1246V32.3278ZM16.1246 34.7836H21.0361V35.3975C21.0361 36.0757 20.4864 36.6254 19.8082 36.6254H17.3525C16.6743 36.6254 16.1246 36.0757 16.1246 35.3975V34.7836ZM11.237 24.1962C11.5722 24.4703 11.9224 24.7255 12.2862 24.9605C12.8663 25.3271 13.303 25.8817 13.5233 26.5316L12.2064 27.846L10.9312 26.9669C10.3729 26.5821 9.60827 26.7228 9.2234 27.2812C9.13116 27.4151 9.06639 27.566 9.03293 27.7251L8.71122 29.2581H7.25188L6.93018 27.7275C6.79051 27.064 6.13934 26.6392 5.47575 26.7789C5.31666 26.8123 5.16579 26.8771 5.03187 26.9693L3.7561 27.846L2.6375 26.7299L3.51605 25.4553C3.90122 24.8972 3.76093 24.1325 3.20278 23.7474C3.06879 23.6549 2.91776 23.59 2.75844 23.5564L1.22789 23.2341V21.7754L2.75844 21.4531C3.42181 21.3124 3.84558 20.6606 3.70491 19.9972C3.67153 19.8398 3.6076 19.6905 3.51666 19.5578L2.6375 18.2796L3.7561 17.1634L5.03248 18.0426C5.59109 18.427 6.35568 18.2858 6.74009 17.7272C6.83218 17.5934 6.8968 17.4427 6.93018 17.2838L7.03762 16.773C7.136 17.4804 7.29893 18.1772 7.52447 18.8549C5.50437 19.0957 4.062 20.9286 4.30281 22.9487C4.54363 24.9688 6.37656 26.4112 8.39666 26.1704C9.61272 26.0253 10.6772 25.2854 11.237 24.1962ZM10.2835 23.3311C9.82507 24.6054 8.42045 25.2668 7.14613 24.8084C5.87182 24.3499 5.21045 22.9453 5.66883 21.671C6.01955 20.6961 6.94514 20.0468 7.98117 20.049C7.98915 20.049 7.99652 20.049 8.0045 20.049C8.5691 21.2663 9.34013 22.3767 10.2835 23.3311ZM35.341 14.133L33.5605 13.8789C32.5535 13.735 31.6206 14.4349 31.4768 15.4418C31.4077 15.9254 31.5336 16.4166 31.8268 16.8074L32.9054 18.2458L30.9408 19.7193L29.8615 18.2814C29.2513 17.4676 28.0968 17.3025 27.283 17.9128C26.8923 18.2058 26.6339 18.642 26.5647 19.1256L26.316 20.9085L23.8854 20.561L24.1396 18.7806C24.2838 17.7736 23.5844 16.8404 22.5774 16.6963C22.0935 16.627 21.6021 16.7529 21.2111 17.0462L19.7726 18.1249L18.2992 16.1603L19.737 15.081C20.5509 14.4707 20.7159 13.3163 20.1057 12.5025C19.8127 12.1117 19.3764 11.8533 18.8928 11.7841L17.1124 11.5299L17.4599 9.09932L19.2403 9.35349C20.2473 9.49769 21.1805 8.79826 21.3246 7.79132C21.3939 7.30745 21.268 6.81599 20.9747 6.42499L19.8923 4.9853L21.857 3.51183L22.9363 4.9503C23.5465 5.76416 24.701 5.92923 25.5147 5.31897C25.9055 5.02597 26.1639 4.58969 26.2331 4.10613L26.4873 2.3257L28.9179 2.67258L28.6637 4.45301C28.5199 5.46003 29.2196 6.39291 30.2267 6.53673C30.7102 6.60579 31.2015 6.47994 31.5922 6.18678L33.0307 5.10808L34.5042 7.0727L33.0657 8.15201C32.2518 8.76227 32.0868 9.91671 32.697 10.7305C32.99 11.1213 33.4263 11.3797 33.9099 11.4489L35.6903 11.703L35.341 14.133Z" fill="#B9B9B9"/>
<path d="M26.3998 6.7041C23.6873 6.7041 21.4883 8.90309 21.4883 11.6156C21.4883 14.3282 23.6873 16.5272 26.3998 16.5272C29.1124 16.5272 31.3113 14.3282 31.3113 11.6156C31.3083 8.90432 29.1111 6.70709 26.3998 6.7041ZM26.3998 15.2993C24.3654 15.2993 22.7162 13.6501 22.7162 11.6156C22.7162 9.58119 24.3654 7.93199 26.3998 7.93199C28.4343 7.93199 30.0835 9.58119 30.0835 11.6156C30.0811 13.6491 28.4333 15.2969 26.3998 15.2993Z" fill="#B9B9B9"/>
<path d="M19.1927 28.0303H17.9648V29.8721H19.1927V28.0303Z" fill="#B9B9B9"/>
<path d="M15.8955 22.0008C12.1055 20.5202 10.2334 16.2477 11.714 12.4577C12.2877 10.9892 13.3174 9.74341 14.6516 8.90354L13.9953 7.86475C9.97891 10.395 8.77412 15.7022 11.3044 19.7186C12.2843 21.2741 13.7372 22.4744 15.4497 23.1433C16.9656 23.7241 17.9665 25.1791 17.9669 26.8024H19.1948C19.1967 24.6726 17.8843 22.7626 15.8955 22.0008Z" fill="#B9B9B9"/>
<path d="M34.5437 23.7324H30.2461V24.9603H34.5437V23.7324Z" fill="#B9B9B9"/>
<path d="M30.0242 26.9438L29.2383 27.8872L32.9222 30.9564L33.7082 30.013L30.0242 26.9438Z" fill="#B9B9B9"/>
<path d="M27.7904 28.644H26.5625V32.9416H27.7904V28.644Z" fill="#B9B9B9"/>
<path d="M5.53619 10.2435L0.625 11.4712L0.922613 12.6618L5.83381 11.4341L5.53619 10.2435Z" fill="#B9B9B9"/>
<path d="M2.36173 4.20157L1.64844 5.2002L5.94569 8.26959L6.65898 7.27096L2.36173 4.20157Z" fill="#B9B9B9"/>
<path d="M8.09582 0.863822L6.90625 1.16797L8.16192 6.07912L9.35149 5.77498L8.09582 0.863822Z" fill="#B9B9B9"/>
</svg>
