<svg width="407" height="28" viewBox="0 0 407 28" fill="none" xmlns="http://www.w3.org/2000/svg">
<path d="M0 26.923L8.82999 26.936L15.154 0.0130005L6.324 0L0 26.923Z" fill="#97AE32"/>
<path d="M20.6211 26.9528L29.4511 26.9658L35.7741 0.0427856L26.9451 0.0297852L20.6211 26.9528Z" fill="#97AE32"/>
<path d="M41.2422 26.984L50.0722 26.997L56.3952 0.0740356L47.5662 0.0610352L41.2422 26.984Z" fill="#97AE32"/>
<path d="M61.8633 27.0148L70.6933 27.0278L77.0163 0.104797L68.1873 0.0917969L61.8633 27.0148Z" fill="#97AE32"/>
<path d="M82.4844 27.0451L91.3144 27.0581L97.6384 0.135071L88.8084 0.12207L82.4844 27.0451Z" fill="#97AE32"/>
<path d="M103.105 27.0579H111.938L118.254 0.165863L109.425 0.151855L103.105 27.0579Z" fill="#97AE32"/>
<path d="M123.734 27.0581H132.567L138.876 0.196106L130.047 0.183105L123.734 27.0581Z" fill="#97AE32"/>
<path d="M144.363 27.0579H153.196L159.498 0.226868L150.668 0.213867L144.363 27.0579Z" fill="#97AE32"/>
<path d="M164.992 27.0582H173.825L180.12 0.258148L171.29 0.244141L164.992 27.0582Z" fill="#97AE32"/>
<path d="M185.617 27.0579H194.45L200.738 0.287903L191.908 0.274902L185.617 27.0579Z" fill="#97AE32"/>
<path d="M206.246 27.0582H215.078L221.359 0.319153L212.53 0.306152L206.246 27.0582Z" fill="#97AE32"/>
<path d="M226.875 27.0579H235.707L241.98 0.34993L233.151 0.335938L226.875 27.0579Z" fill="#97AE32"/>
<path d="M247.504 27.0582H256.336L262.603 0.380188L253.772 0.367188L247.504 27.0582Z" fill="#97AE32"/>
<path d="M268.129 27.058H276.962L283.221 0.41095L274.391 0.397949L268.129 27.058Z" fill="#97AE32"/>
<path d="M288.816 27.0582H297.649L303.901 0.44223L295.071 0.428223L288.816 27.0582Z" fill="#97AE32"/>
<path d="M309.445 27.058H318.278L324.522 0.471985L315.693 0.458984L309.445 27.058Z" fill="#97AE32"/>
<path d="M330.07 27.0582H338.903L345.14 0.503235L336.311 0.490234L330.07 27.0582Z" fill="#97AE32"/>
<path d="M350.699 27.058H359.531L365.761 0.534027L356.932 0.52002L350.699 27.058Z" fill="#97AE32"/>
<path d="M371.328 27.0578H380.16L386.383 0.563782L377.554 0.550781L371.328 27.0578Z" fill="#97AE32"/>
<path d="M391.957 27.058H400.789L406.062 4.61003V0.594025L398.176 0.582031L391.957 27.058Z" fill="#97AE32"/>
</svg>
