<svg width="36" height="37" viewBox="0 0 36 37" fill="none" xmlns="http://www.w3.org/2000/svg">
<path d="M25.4127 18.5833C28.0743 16.5526 30.2316 13.9353 31.717 10.9349C33.2023 7.93461 33.9756 4.63212 33.9768 1.28425C33.9768 1.17273 33.9325 1.06578 33.8536 0.986926C33.7748 0.90807 33.6678 0.86377 33.5563 0.86377C28.7163 0.86276 24.0148 2.47946 20.1991 5.45695C18.726 6.60422 17.4049 7.93422 16.2676 9.41492C15.8676 9.66033 15.3968 9.76426 14.9306 9.71005C14.4645 9.65584 14.0301 9.44662 13.6971 9.11596C13.1485 8.56737 12.4046 8.259 11.6287 8.25861C10.8529 8.25821 10.1086 8.56582 9.55946 9.11385L5.39469 13.2177C5.35504 13.2568 5.32357 13.3034 5.30208 13.3548C5.2806 13.4061 5.26953 13.4613 5.26953 13.517C5.26953 13.5727 5.2806 13.6278 5.30208 13.6792C5.32357 13.7306 5.35504 13.7772 5.39469 13.8163L7.80431 16.1962C8.41252 16.7936 9.19025 17.1887 10.0314 17.3277C10.8725 17.4667 11.736 17.3427 12.504 16.9728C12.5026 16.9779 12.5011 16.983 12.4997 16.9881C12.4804 17.0595 12.4803 17.1347 12.4993 17.2062C12.5184 17.2776 12.556 17.3428 12.6083 17.3951L13.821 18.608L10.854 19.2368C10.7799 19.2525 10.7115 19.2879 10.6559 19.3392C10.6002 19.3906 10.5595 19.456 10.538 19.5286C10.5165 19.6012 10.5149 19.6782 10.5335 19.7516C10.5521 19.8249 10.5902 19.8919 10.6437 19.9455L12.1364 21.4382C11.7996 21.2366 11.433 21.0895 11.0502 21.0022C10.9284 20.9747 10.8063 20.9531 10.6884 20.9384C10.5408 20.9197 10.3922 20.9097 10.2434 20.9086C9.75132 20.9044 9.26332 20.9987 8.80814 21.1858C8.35297 21.373 7.9398 21.6492 7.59295 21.9984C7.23478 22.3507 6.95045 22.7708 6.75657 23.2342C6.5627 23.6977 6.46317 24.1952 6.46383 24.6975C6.46379 24.8072 6.50663 24.9126 6.58319 24.9911C6.65976 25.0697 6.76399 25.1152 6.87365 25.118L7.19076 25.1261C6.57707 25.9756 6.31931 27.0312 6.47238 28.0679C6.49142 28.1633 6.543 28.2491 6.61829 28.3106C6.69359 28.3721 6.78792 28.4055 6.88515 28.4052H8.0339C8.14541 28.4052 8.25236 28.3609 8.33122 28.282C8.41008 28.2032 8.45438 28.0962 8.45438 27.9847C8.45438 27.8732 8.41008 27.7662 8.33122 27.6874C8.25236 27.6085 8.14541 27.5642 8.0339 27.5642H7.26792C7.25601 27.0036 7.37907 25.9413 8.39726 25.0428C8.46058 24.987 8.5056 24.9134 8.52645 24.8315C8.54729 24.7497 8.54299 24.6636 8.51411 24.5842C8.48522 24.5049 8.4331 24.4361 8.36454 24.3869C8.29598 24.3376 8.21416 24.3102 8.12977 24.3082L7.33366 24.2881C7.42364 23.6455 7.72311 23.0506 8.18562 22.5955C8.45161 22.3279 8.76784 22.1153 9.11616 21.9702C9.46449 21.825 9.83805 21.7501 10.2154 21.7496H10.2373C10.3043 21.75 10.3714 21.7536 10.4385 21.7587C10.1817 21.9101 9.96324 22.1186 9.80011 22.3681C9.63698 22.6175 9.53355 22.9012 9.49786 23.1972L9.25672 25.1454C9.2494 25.2045 9.25473 25.2645 9.27236 25.3214C9.28998 25.3783 9.31949 25.4309 9.35895 25.4755C9.3984 25.5201 9.44689 25.5559 9.5012 25.5804C9.55551 25.6049 9.6144 25.6175 9.67398 25.6175C9.69124 25.6175 9.70849 25.6165 9.72562 25.6144L11.6738 25.3732C11.97 25.3367 12.2538 25.2326 12.5032 25.069C12.7527 24.9053 12.9613 24.6865 13.1127 24.4295C13.1188 24.5052 13.1229 24.5816 13.123 24.6586C13.124 25.0407 13.0492 25.4193 12.903 25.7723C12.7568 26.1254 12.542 26.4459 12.2711 26.7155C12.2311 26.7543 12.1993 26.8007 12.1775 26.8519C12.1557 26.9032 12.1442 26.9582 12.1438 27.0139C12.1435 27.0696 12.1541 27.1249 12.1753 27.1764C12.1964 27.2279 12.2276 27.2747 12.267 27.3141C12.3064 27.3535 12.3532 27.3847 12.4047 27.4058C12.4562 27.427 12.5114 27.4377 12.5671 27.4373C12.6228 27.4369 12.6779 27.4255 12.7291 27.4036C12.7804 27.3818 12.8268 27.35 12.8656 27.3101C13.2696 26.9065 13.576 26.4158 13.7613 25.8756C13.9465 25.3354 14.0058 24.76 13.9346 24.1934C13.9206 24.0761 13.9001 23.9569 13.8739 23.8389C13.7872 23.4501 13.6387 23.0778 13.4343 22.7359L14.8953 24.1967C14.9479 24.2494 15.0137 24.2871 15.0857 24.306C15.1577 24.325 15.2335 24.3244 15.3053 24.3045C15.377 24.2845 15.4422 24.2458 15.4941 24.1924C15.546 24.139 15.5828 24.0728 15.6007 24.0005L16.3171 21.104L17.4076 22.1947C17.4597 22.2467 17.5245 22.2841 17.5955 22.3033C17.6666 22.3225 17.7414 22.3227 17.8126 22.3039C17.8377 22.2969 17.8626 22.2899 17.8878 22.2828C17.5033 23.0543 17.3692 23.9264 17.504 24.7777C17.6389 25.629 18.036 26.417 18.6401 27.0319L21.0198 29.4564C21.0972 29.5405 21.2047 29.5909 21.3189 29.5965C21.4332 29.5909 21.5407 29.5406 21.6182 29.4564L25.72 25.2866C26.2681 24.7365 26.5759 23.9915 26.5759 23.2148C26.5759 22.4382 26.2681 21.6932 25.72 21.1431C25.3913 20.8114 25.1827 20.3795 25.127 19.9159C25.0714 19.4523 25.1719 18.9834 25.4127 18.5833ZM33.1315 1.709C33.1059 2.98785 32.963 4.26164 32.7045 5.51434C31.2827 4.72643 30.109 3.5576 29.3151 2.13922C30.5713 1.87865 31.8488 1.73463 33.1315 1.709ZM8.39502 15.5979L6.28856 13.5175L10.1516 9.71066C10.5428 9.31944 11.0735 9.09967 11.6268 9.09967C12.18 9.09967 12.7107 9.31944 13.1019 9.71066C13.4074 10.0143 13.7758 10.2471 14.1813 10.3925C14.5867 10.5379 15.0191 10.5924 15.4479 10.552C14.3689 12.1529 13.5073 13.89 12.8858 15.7178C12.2608 16.2694 11.4501 16.5637 10.6168 16.5415C9.78353 16.5192 8.98964 16.182 8.39502 15.5979ZM12.5017 23.7395C12.4424 23.9497 12.3224 24.1376 12.1567 24.2797C11.9909 24.4219 11.7869 24.5119 11.5702 24.5384L10.1575 24.7136L10.3327 23.3013C10.3611 23.0803 10.4548 22.8729 10.6019 22.7056C10.749 22.5382 10.9428 22.4187 11.1583 22.3622C11.3473 22.314 11.5457 22.3164 11.7335 22.3692C11.9213 22.422 12.0919 22.5233 12.2281 22.6629C12.3643 22.8026 12.4614 22.9757 12.5095 23.1647C12.5575 23.3538 12.555 23.5522 12.502 23.7399L12.5017 23.7395ZM14.9631 23.0754L11.7865 19.8988L14.5303 19.3171L15.6224 20.409L14.9631 23.0754ZM17.83 21.4277L13.3759 16.9737C13.4507 16.7092 13.5309 16.4465 13.6165 16.1854C13.6191 16.1829 13.6216 16.1806 13.6242 16.1784L13.6202 16.1744C14.6327 13.1087 16.3345 10.3159 18.5949 8.01062C20.8552 5.7053 23.6139 3.94882 26.6591 2.87611C27.2536 2.6676 27.8552 2.48708 28.464 2.33454C29.3716 4.05795 30.7829 5.46377 32.5099 6.36455C30.7112 13.542 25.1808 19.3918 17.83 21.4277ZM25.1233 24.6864L21.3186 28.5474L19.2382 26.441C18.6454 25.8377 18.3073 25.0296 18.2938 24.1839C18.2804 23.3381 18.5926 22.5196 19.1659 21.8978C20.9752 21.291 22.6962 20.4472 24.2839 19.3885C24.2437 19.8172 24.2983 20.2495 24.4437 20.6549C24.5891 21.0602 24.8218 21.4286 25.1254 21.734C25.5163 22.126 25.7356 22.6571 25.7352 23.2107C25.7348 23.7643 25.5147 24.2951 25.1233 24.6866V24.6864Z" fill="#B9B9B9" stroke="#B9B9B9" stroke-width="0.5"/>
<path d="M10.8962 27.4857C10.6732 27.5385 10.4448 27.5649 10.2157 27.5643H9.55329C9.44177 27.5643 9.33482 27.6086 9.25597 27.6875C9.17711 27.7663 9.13281 27.8733 9.13281 27.9848C9.13281 28.0963 9.17711 28.2033 9.25597 28.2821C9.33482 28.361 9.44177 28.4053 9.55329 28.4053H10.2157C10.5107 28.4058 10.8047 28.3717 11.0917 28.3035C11.2001 28.2775 11.2938 28.2096 11.3521 28.1145C11.4105 28.0194 11.4286 27.9051 11.4027 27.7967C11.3767 27.6882 11.3087 27.5945 11.2136 27.5362C11.1186 27.4779 11.0043 27.4597 10.8958 27.4857H10.8962Z" fill="#B9B9B9" stroke="#B9B9B9" stroke-width="0.5"/>
<path d="M27.8155 18.7981C27.9134 18.7982 28.0082 18.764 28.0835 18.7014C28.3831 18.4533 28.6803 18.1935 28.9665 17.9291C29.0077 17.8919 29.0411 17.8468 29.0648 17.7965C29.0885 17.7462 29.102 17.6918 29.1045 17.6363C29.107 17.5807 29.0985 17.5253 29.0795 17.4731C29.0604 17.4209 29.0312 17.373 28.9935 17.3321C28.9558 17.2913 28.9104 17.2583 28.8599 17.2351C28.8094 17.2119 28.7548 17.199 28.6993 17.197C28.6437 17.1951 28.5883 17.2042 28.5363 17.2237C28.4843 17.2433 28.4367 17.273 28.3962 17.3111C28.1208 17.5653 27.8349 17.8151 27.5468 18.0539C27.4802 18.1091 27.4322 18.1836 27.4094 18.267C27.3866 18.3505 27.3901 18.439 27.4195 18.5204C27.4488 18.6018 27.5026 18.6722 27.5734 18.7219C27.6442 18.7717 27.7287 18.7983 27.8152 18.7983L27.8155 18.7981Z" fill="#B9B9B9" stroke="#B9B9B9" stroke-width="0.5"/>
<path d="M34.7584 7.72308C34.7056 7.70709 34.6501 7.70168 34.5951 7.70714C34.5402 7.7126 34.4869 7.72883 34.4382 7.75491C34.3895 7.78099 34.3464 7.8164 34.3114 7.85911C34.2765 7.90183 34.2502 7.95103 34.2342 8.00389C33.8802 9.1739 33.4238 10.3105 32.8704 11.4004C32.6688 11.7972 32.4513 12.1932 32.2241 12.5772C31.9449 13.0489 31.6432 13.5157 31.3271 13.9647C30.8258 14.6765 30.2808 15.3566 29.6952 16.0009C29.6202 16.0834 29.5811 16.1924 29.5864 16.3038C29.5917 16.4152 29.6411 16.5199 29.7236 16.5949C29.8062 16.6699 29.9151 16.7091 30.0265 16.7037C30.1379 16.6984 30.2426 16.6491 30.3176 16.5665C30.9265 15.8963 31.4932 15.1889 32.0145 14.4486C32.3432 13.9817 32.6571 13.4962 32.9476 13.0054C33.184 12.606 33.4101 12.1941 33.6199 11.7812C34.1958 10.6471 34.6706 9.46457 35.039 8.2472C35.0712 8.1405 35.0598 8.02535 35.0072 7.92706C34.9546 7.82878 34.8651 7.75541 34.7584 7.72308Z" fill="#B9B9B9" stroke="#B9B9B9" stroke-width="0.5"/>
<path d="M1.55746 18.0691C1.61268 18.0691 1.66737 18.0583 1.71838 18.0371C1.7694 18.016 1.81574 17.985 1.85474 17.9459L2.17675 17.6239C2.25385 17.5447 2.29665 17.4383 2.29591 17.3278C2.29517 17.2173 2.25093 17.1115 2.17278 17.0333C2.09463 16.9552 1.98885 16.9109 1.87832 16.9102C1.76779 16.9094 1.66141 16.9522 1.5822 17.0293L1.25983 17.3513C1.20104 17.4101 1.16101 17.485 1.14479 17.5666C1.12858 17.6481 1.1369 17.7327 1.16872 17.8095C1.20054 17.8863 1.25442 17.952 1.32355 17.9982C1.39268 18.0444 1.47396 18.069 1.55711 18.0691H1.55746Z" fill="#B9B9B9" stroke="#B9B9B9" stroke-width="0.5"/>
<path d="M3.09127 16.7103L4.53008 15.2715C4.56913 15.2325 4.60011 15.1862 4.62124 15.1351C4.64238 15.0841 4.65326 15.0294 4.65326 14.9742C4.65326 14.919 4.64239 14.8643 4.62126 14.8133C4.60013 14.7623 4.56916 14.7159 4.53012 14.6769C4.49107 14.6378 4.44472 14.6069 4.39371 14.5857C4.34269 14.5646 4.28801 14.5537 4.23279 14.5537C4.17757 14.5537 4.1229 14.5646 4.07188 14.5857C4.02086 14.6068 3.9745 14.6378 3.93546 14.6769L2.49672 16.1156C2.45714 16.1545 2.42567 16.2009 2.40411 16.252C2.38255 16.3032 2.37133 16.3581 2.3711 16.4136C2.37086 16.4691 2.38162 16.5241 2.40276 16.5754C2.42389 16.6268 2.45497 16.6734 2.49421 16.7127C2.53346 16.7519 2.58009 16.783 2.63141 16.8041C2.68273 16.8253 2.73773 16.8361 2.79324 16.8358C2.84874 16.8356 2.90365 16.8244 2.95481 16.8029C3.00596 16.7813 3.05234 16.7499 3.09127 16.7103Z" fill="#B9B9B9" stroke="#B9B9B9" stroke-width="0.5"/>
<path d="M1.89665 19.5175C1.97551 19.5964 2.08245 19.6407 2.19397 19.6407C2.30548 19.6407 2.41243 19.5964 2.49128 19.5175L4.18252 17.8262C4.22156 17.7872 4.25253 17.7408 4.27366 17.6898C4.29479 17.6388 4.30566 17.5841 4.30566 17.5289C4.30566 17.4736 4.29478 17.419 4.27364 17.368C4.25251 17.3169 4.22153 17.2706 4.18248 17.2315C4.14344 17.1925 4.09708 17.1615 4.04606 17.1404C3.99504 17.1193 3.94036 17.1084 3.88514 17.1084C3.82993 17.1084 3.77525 17.1193 3.72423 17.1404C3.67322 17.1615 3.62686 17.1925 3.58782 17.2316L1.89658 18.9228C1.85754 18.9619 1.82656 19.0082 1.80543 19.0592C1.7843 19.1103 1.77343 19.165 1.77344 19.2202C1.77344 19.2754 1.78433 19.3301 1.80547 19.3811C1.82661 19.4321 1.8576 19.4785 1.89665 19.5175Z" fill="#B9B9B9" stroke="#B9B9B9" stroke-width="0.5"/>
<path d="M4.70945 17.1224C4.76467 17.1224 4.81936 17.1116 4.87038 17.0905C4.92139 17.0693 4.96773 17.0383 5.00673 16.9992L5.63198 16.3741C5.67156 16.3351 5.70303 16.2888 5.72459 16.2376C5.74615 16.1865 5.75737 16.1316 5.7576 16.0761C5.75783 16.0205 5.74708 15.9655 5.72594 15.9142C5.70481 15.8629 5.67373 15.8163 5.63449 15.777C5.59524 15.7377 5.54861 15.7067 5.49729 15.6855C5.44597 15.6644 5.39097 15.6536 5.33546 15.6538C5.27996 15.654 5.22505 15.6652 5.17389 15.6868C5.12274 15.7083 5.07636 15.7398 5.03743 15.7794L4.41217 16.4046C4.35339 16.4634 4.31335 16.5383 4.29714 16.6199C4.28092 16.7014 4.28925 16.786 4.32106 16.8628C4.35288 16.9396 4.40676 17.0053 4.47589 17.0515C4.54502 17.0977 4.6263 17.1224 4.70945 17.1224Z" fill="#B9B9B9" stroke="#B9B9B9" stroke-width="0.5"/>
<path d="M2.98907 20.0338L1.12074 21.902C1.04295 21.9811 0.999552 22.0877 1 22.1986C1.00046 22.3095 1.04472 22.4158 1.12316 22.4942C1.20159 22.5726 1.30784 22.6169 1.41877 22.6174C1.52969 22.6178 1.6363 22.5744 1.71537 22.4966L3.58356 20.6284C3.62313 20.5895 3.6546 20.5431 3.67615 20.492C3.69771 20.4408 3.70892 20.3859 3.70914 20.3304C3.70937 20.2749 3.6986 20.2199 3.67747 20.1686C3.65633 20.1172 3.62524 20.0706 3.58599 20.0314C3.54674 19.9921 3.50011 19.961 3.44879 19.9399C3.39746 19.9187 3.34246 19.908 3.28696 19.9082C3.23145 19.9084 3.17654 19.9196 3.12539 19.9412C3.07424 19.9628 3.02786 19.9942 2.98893 20.0338H2.98907Z" fill="#B9B9B9" stroke="#B9B9B9" stroke-width="0.5"/>
<path d="M6.73697 16.8824C6.65812 16.8036 6.55119 16.7593 6.43969 16.7593C6.32819 16.7593 6.22126 16.8036 6.14241 16.8824L3.95375 19.0708C3.91417 19.1097 3.8827 19.1561 3.86114 19.2072C3.83958 19.2584 3.82836 19.3133 3.82813 19.3688C3.8279 19.4243 3.83866 19.4793 3.85979 19.5306C3.88092 19.582 3.912 19.6286 3.95125 19.6678C3.99049 19.7071 4.03712 19.7382 4.08844 19.7593C4.13976 19.7805 4.19476 19.7912 4.25027 19.791C4.30577 19.7908 4.36069 19.7796 4.41184 19.7581C4.46299 19.7365 4.50937 19.705 4.5483 19.6655L6.73697 17.4767C6.81573 17.3979 6.85998 17.291 6.85998 17.1796C6.85998 17.0681 6.81573 16.9612 6.73697 16.8824Z" fill="#B9B9B9" stroke="#B9B9B9" stroke-width="0.5"/>
<path d="M15.008 30.4532L14.6856 30.7751C14.6068 30.854 14.5625 30.9609 14.5625 31.0724C14.5625 31.184 14.6068 31.2909 14.6857 31.3698C14.7645 31.4486 14.8715 31.4929 14.983 31.4929C15.0945 31.4929 15.2015 31.4486 15.2803 31.3697L15.6023 31.0474C15.6801 30.9683 15.7235 30.8617 15.723 30.7507C15.7225 30.6398 15.6783 30.5336 15.5998 30.4552C15.5214 30.3767 15.4151 30.3325 15.3042 30.332C15.1933 30.3316 15.0867 30.375 15.0076 30.4528L15.008 30.4532Z" fill="#B9B9B9" stroke="#B9B9B9" stroke-width="0.5"/>
<path d="M17.3589 28.1011L15.9202 29.5398C15.8803 29.5786 15.8485 29.625 15.8266 29.6763C15.8048 29.7275 15.7934 29.7826 15.793 29.8383C15.7926 29.894 15.8033 29.9492 15.8244 30.0007C15.8456 30.0523 15.8767 30.0991 15.9161 30.1385C15.9555 30.1778 16.0023 30.209 16.0538 30.2302C16.1054 30.2513 16.1606 30.262 16.2163 30.2616C16.272 30.2612 16.327 30.2498 16.3783 30.228C16.4295 30.2061 16.4759 30.1743 16.5148 30.1344L17.9535 28.6957C18.0306 28.6165 18.0734 28.5101 18.0726 28.3996C18.0719 28.2891 18.0277 28.1833 17.9495 28.1051C17.8714 28.0269 17.7656 27.9827 17.6551 27.9819C17.5445 27.9812 17.4381 28.024 17.3589 28.1011Z" fill="#B9B9B9" stroke="#B9B9B9" stroke-width="0.5"/>
<path d="M15.3184 32.9418C15.3972 33.0206 15.5042 33.0649 15.6157 33.0649C15.7272 33.0649 15.8342 33.0206 15.913 32.9418L17.6043 31.2506C17.6442 31.2118 17.676 31.1654 17.6979 31.1142C17.7197 31.0629 17.7312 31.0079 17.7316 30.9522C17.7319 30.8965 17.7212 30.8412 17.7001 30.7897C17.679 30.7382 17.6478 30.6914 17.6084 30.652C17.569 30.6126 17.5222 30.5814 17.4707 30.5603C17.4192 30.5391 17.364 30.5284 17.3083 30.5288C17.2526 30.5292 17.1975 30.5406 17.1462 30.5625C17.095 30.5843 17.0486 30.6161 17.0098 30.656L15.3185 32.3472C15.2396 32.4261 15.1953 32.533 15.1953 32.6445C15.1953 32.756 15.2396 32.8629 15.3184 32.9418Z" fill="#B9B9B9" stroke="#B9B9B9" stroke-width="0.5"/>
<path d="M17.838 30.4236C17.8771 30.4627 17.9234 30.4937 17.9744 30.5148C18.0255 30.5359 18.0802 30.5468 18.1354 30.5468C18.1906 30.5468 18.2453 30.5359 18.2963 30.5148C18.3473 30.4937 18.3937 30.4627 18.4327 30.4236L19.0579 29.7984C19.1368 29.7195 19.181 29.6126 19.181 29.501C19.181 29.3895 19.1367 29.2826 19.0578 29.2037C18.979 29.1248 18.872 29.0806 18.7605 29.0806C18.6489 29.0806 18.542 29.1249 18.4631 29.2038L17.838 29.8289C17.799 29.868 17.768 29.9144 17.7469 29.9654C17.7257 30.0164 17.7148 30.0711 17.7148 30.1263C17.7148 30.1815 17.7257 30.2362 17.7469 30.2872C17.768 30.3382 17.799 30.3846 17.838 30.4236Z" fill="#B9B9B9" stroke="#B9B9B9" stroke-width="0.5"/>
<path d="M16.4118 33.4581L14.5436 35.3262C14.504 35.3651 14.4725 35.4115 14.451 35.4627C14.4294 35.5138 14.4182 35.5687 14.418 35.6242C14.4177 35.6797 14.4285 35.7347 14.4496 35.7861C14.4708 35.8374 14.5018 35.884 14.5411 35.9233C14.5803 35.9625 14.627 35.9936 14.6783 36.0148C14.7296 36.0359 14.7846 36.0467 14.8401 36.0465C14.8956 36.0463 14.9505 36.035 15.0017 36.0135C15.0528 35.992 15.0992 35.9605 15.1381 35.9209L17.0064 34.0527C17.046 34.0138 17.0774 33.9674 17.099 33.9163C17.1205 33.8651 17.1318 33.8102 17.132 33.7547C17.1322 33.6992 17.1214 33.6442 17.1003 33.5929C17.0792 33.5416 17.0481 33.4949 17.0088 33.4557C16.9696 33.4164 16.923 33.3853 16.8716 33.3642C16.8203 33.3431 16.7653 33.3323 16.7098 33.3325C16.6543 33.3327 16.5994 33.344 16.5482 33.3655C16.4971 33.3871 16.4507 33.4185 16.4118 33.4581Z" fill="#B9B9B9" stroke="#B9B9B9" stroke-width="0.5"/>
<path d="M19.5643 30.3062L17.3756 32.495C17.336 32.5339 17.3046 32.5803 17.283 32.6314C17.2614 32.6826 17.2502 32.7375 17.25 32.793C17.2498 32.8485 17.2605 32.9035 17.2817 32.9548C17.3028 33.0061 17.3339 33.0528 17.3732 33.092C17.4124 33.1313 17.459 33.1623 17.5104 33.1835C17.5617 33.2046 17.6167 33.2154 17.6722 33.2152C17.7277 33.2149 17.7826 33.2037 17.8338 33.1822C17.8849 33.1606 17.9313 33.1291 17.9702 33.0896L20.1589 30.9009C20.1985 30.862 20.2299 30.8156 20.2515 30.7645C20.2731 30.7133 20.2843 30.6584 20.2845 30.6029C20.2847 30.5474 20.274 30.4924 20.2528 30.4411C20.2317 30.3897 20.2006 30.3431 20.1614 30.3039C20.1221 30.2646 20.0755 30.2335 20.0242 30.2124C19.9729 30.1912 19.9179 30.1804 19.8624 30.1807C19.8069 30.1809 19.7519 30.1921 19.7008 30.2136C19.6496 30.2352 19.6033 30.2667 19.5643 30.3062Z" fill="#B9B9B9" stroke="#B9B9B9" stroke-width="0.5"/>
<path d="M31.4731 25.2031C31.1282 25.0866 30.815 24.8919 30.5581 24.6341C30.3011 24.3764 30.1073 24.0626 29.9919 23.7174C29.964 23.6336 29.9105 23.5608 29.8389 23.5091C29.7673 23.4575 29.6812 23.4297 29.593 23.4297C29.5047 23.4297 29.4186 23.4575 29.347 23.5091C29.2754 23.5608 29.2219 23.6336 29.194 23.7174C29.0786 24.0626 28.8848 24.3764 28.6278 24.6341C28.3709 24.8919 28.0577 25.0866 27.7129 25.2031C27.6292 25.2311 27.5565 25.2846 27.505 25.3562C27.4535 25.4277 27.4258 25.5137 27.4258 25.6018C27.4258 25.69 27.4535 25.776 27.505 25.8475C27.5565 25.9191 27.6292 25.9726 27.7129 26.0006C28.0577 26.1171 28.3709 26.3118 28.6278 26.5696C28.8848 26.8273 29.0786 27.1411 29.194 27.4863C29.2219 27.5701 29.2754 27.6429 29.347 27.6946C29.4186 27.7462 29.5047 27.774 29.593 27.774C29.6812 27.774 29.7673 27.7462 29.8389 27.6946C29.9105 27.6429 29.964 27.5701 29.9919 27.4863C30.1073 27.1411 30.3011 26.8273 30.5581 26.5696C30.815 26.3118 31.1282 26.1171 31.4731 26.0006C31.5567 25.9726 31.6294 25.9191 31.6809 25.8475C31.7324 25.776 31.7601 25.69 31.7601 25.6018C31.7601 25.5137 31.7324 25.4277 31.6809 25.3562C31.6294 25.2846 31.5567 25.2311 31.4731 25.2031ZM29.593 26.4211C29.3721 26.1009 29.0951 25.8233 28.7753 25.6018C29.0951 25.3804 29.3721 25.1028 29.593 24.7825C29.8138 25.1028 30.0908 25.3804 30.4106 25.6018C30.0908 25.8233 29.8138 26.1009 29.593 26.4211Z" fill="#B9B9B9" stroke="#B9B9B9" stroke-width="0.5"/>
<path d="M1.64254 9.11144C1.98737 9.2279 2.30055 9.42264 2.55752 9.68041C2.81449 9.93817 3.00827 10.2519 3.12368 10.5971C3.15156 10.6809 3.2051 10.7538 3.2767 10.8054C3.34831 10.857 3.43436 10.8848 3.52264 10.8848C3.61093 10.8848 3.69697 10.857 3.76858 10.8054C3.84019 10.7538 3.89373 10.6809 3.92161 10.5971C4.03701 10.2519 4.2308 9.93817 4.48777 9.68041C4.74474 9.42264 5.05791 9.2279 5.40275 9.11144C5.48636 9.08346 5.55907 9.02991 5.61059 8.95835C5.6621 8.88679 5.68982 8.80085 5.68982 8.71268C5.68982 8.62451 5.6621 8.53857 5.61059 8.46701C5.55907 8.39545 5.48636 8.3419 5.40275 8.31392C5.05791 8.19746 4.74474 8.00272 4.48777 7.74495C4.2308 7.48719 4.03701 7.17342 3.92161 6.82823C3.89373 6.74446 3.84019 6.67159 3.76858 6.61995C3.69697 6.56832 3.61093 6.54053 3.52264 6.54053C3.43436 6.54053 3.34831 6.56832 3.2767 6.61995C3.2051 6.67159 3.15156 6.74446 3.12368 6.82823C3.00827 7.17342 2.81449 7.48719 2.55752 7.74495C2.30055 8.00272 1.98737 8.19746 1.64254 8.31392C1.55892 8.3419 1.48622 8.39545 1.4347 8.46701C1.38319 8.53857 1.35547 8.62451 1.35547 8.71268C1.35547 8.80085 1.38319 8.88679 1.4347 8.95835C1.48622 9.02991 1.55892 9.08346 1.64254 9.11144ZM3.52264 7.89337C3.74346 8.21364 4.0205 8.49123 4.34034 8.71268C4.0205 8.93413 3.74346 9.21172 3.52264 9.53198C3.30183 9.21172 3.02478 8.93413 2.70495 8.71268C3.02478 8.49123 3.30183 8.21364 3.52264 7.89337Z" fill="#B9B9B9" stroke="#B9B9B9" stroke-width="0.5"/>
<path d="M8.99248 5.06861C9.41764 5.06861 9.76231 4.72348 9.76231 4.29773C9.76231 3.87199 9.41764 3.52686 8.99248 3.52686C8.56732 3.52686 8.22266 3.87199 8.22266 4.29773C8.22266 4.72348 8.56732 5.06861 8.99248 5.06861Z" fill="#B9B9B9" stroke="#B9B9B9" stroke-width="0.5"/>
<path d="M28.262 32.47C28.6872 32.47 29.0318 32.1248 29.0318 31.6991C29.0318 31.2734 28.6872 30.9282 28.262 30.9282C27.8369 30.9282 27.4922 31.2734 27.4922 31.6991C27.4922 32.1248 27.8369 32.47 28.262 32.47Z" fill="#B9B9B9" stroke="#B9B9B9" stroke-width="0.5"/>
<path d="M23.6853 8.07959C23.1799 8.07987 22.6825 8.20474 22.2369 8.44314C21.7913 8.68154 21.4114 9.02611 21.1308 9.44635C20.8502 9.8666 20.6775 10.3496 20.628 10.8525C20.5786 11.3554 20.6539 11.8627 20.8473 12.3296C21.0406 12.7964 21.3461 13.2084 21.7367 13.529C22.1273 13.8497 22.5909 14.0691 23.0865 14.1678C23.5821 14.2665 24.0944 14.2415 24.578 14.095C25.0616 13.9485 25.5017 13.6851 25.8592 13.3279C26.2892 12.898 26.582 12.3502 26.7006 11.7538C26.8192 11.1574 26.7584 10.5392 26.5257 9.97744C26.2929 9.41565 25.8989 8.9355 25.3933 8.59768C24.8877 8.25987 24.2933 8.07957 23.6852 8.07959H23.6853ZM25.2646 12.7333C24.9522 13.0457 24.5542 13.2584 24.121 13.3446C23.6877 13.4308 23.2386 13.3866 22.8305 13.2175C22.4224 13.0485 22.0735 12.7622 21.8281 12.3949C21.5827 12.0276 21.4517 11.5958 21.4517 11.154C21.4517 10.7123 21.5827 10.2804 21.8281 9.91314C22.0735 9.54584 22.4224 9.25956 22.8305 9.09052C23.2386 8.92147 23.6877 8.87725 24.121 8.96344C24.5542 9.04963 24.9522 9.26237 25.2646 9.57475C25.6828 9.99393 25.9177 10.5619 25.9177 11.154C25.9177 11.7462 25.6828 12.3141 25.2646 12.7333Z" fill="#B9B9B9" stroke="#B9B9B9" stroke-width="0.5"/>
</svg>
