<svg width="403" height="403" viewBox="0 0 403 403" fill="none" xmlns="http://www.w3.org/2000/svg">
<g opacity="0.2">
<mask id="mask0" mask-type="alpha" maskUnits="userSpaceOnUse" x="0" y="0" width="403" height="403">
<circle cx="201.5" cy="201.5" r="201.5" fill="#C4C4C4"/>
</mask>
<g mask="url(#mask0)">
<path d="M26.3673 10.3195C29.9809 10.3195 32.9103 7.39012 32.9103 3.77649C32.9103 0.162854 29.9809 -2.7666 26.3673 -2.7666C22.7536 -2.7666 19.8242 0.162854 19.8242 3.77649C19.8242 7.39012 22.7536 10.3195 26.3673 10.3195Z" fill="#252024"/>
<path d="M62.3126 10.3195C65.9262 10.3195 68.8556 7.39012 68.8556 3.77649C68.8556 0.162854 65.9262 -2.7666 62.3126 -2.7666C58.699 -2.7666 55.7695 0.162854 55.7695 3.77649C55.7695 7.39012 58.699 10.3195 62.3126 10.3195Z" fill="#252024"/>
<path d="M98.2501 10.3195C101.864 10.3195 104.793 7.39012 104.793 3.77649C104.793 0.162854 101.864 -2.7666 98.2501 -2.7666C94.6365 -2.7666 91.707 0.162854 91.707 3.77649C91.707 7.39012 94.6365 10.3195 98.2501 10.3195Z" fill="#252024"/>
<path d="M134.199 10.3195C137.813 10.3195 140.742 7.39012 140.742 3.77649C140.742 0.162854 137.813 -2.7666 134.199 -2.7666C130.586 -2.7666 127.656 0.162854 127.656 3.77649C127.656 7.39012 130.586 10.3195 134.199 10.3195Z" fill="#252024"/>
<path d="M170.149 10.3195C173.762 10.3195 176.692 7.39012 176.692 3.77649C176.692 0.162854 173.762 -2.7666 170.149 -2.7666C166.535 -2.7666 163.605 0.162854 163.605 3.77649C163.605 7.39012 166.535 10.3195 170.149 10.3195Z" fill="#252024"/>
<path d="M206.098 10.3195C209.711 10.3195 212.641 7.39012 212.641 3.77649C212.641 0.162854 209.711 -2.7666 206.098 -2.7666C202.484 -2.7666 199.555 0.162854 199.555 3.77649C199.555 7.39012 202.484 10.3195 206.098 10.3195Z" fill="#252024"/>
<path d="M242.066 10.3195C245.68 10.3195 248.61 7.39012 248.61 3.77649C248.61 0.162854 245.68 -2.7666 242.066 -2.7666C238.453 -2.7666 235.523 0.162854 235.523 3.77649C235.523 7.39012 238.453 10.3195 242.066 10.3195Z" fill="#252024"/>
<path d="M278.004 10.3195C281.618 10.3195 284.547 7.39012 284.547 3.77649C284.547 0.162854 281.618 -2.7666 278.004 -2.7666C274.39 -2.7666 271.461 0.162854 271.461 3.77649C271.461 7.39012 274.39 10.3195 278.004 10.3195Z" fill="#252024"/>
<path d="M313.953 10.3195C317.567 10.3195 320.496 7.39012 320.496 3.77649C320.496 0.162854 317.567 -2.7666 313.953 -2.7666C310.34 -2.7666 307.41 0.162854 307.41 3.77649C307.41 7.39012 310.34 10.3195 313.953 10.3195Z" fill="#252024"/>
<path d="M349.899 10.3195C353.512 10.3195 356.442 7.39012 356.442 3.77649C356.442 0.162854 353.512 -2.7666 349.899 -2.7666C346.285 -2.7666 343.355 0.162854 343.355 3.77649C343.355 7.39012 346.285 10.3195 349.899 10.3195Z" fill="#252024"/>
<path d="M385.848 10.3195C389.461 10.3195 392.391 7.39012 392.391 3.77649C392.391 0.162854 389.461 -2.7666 385.848 -2.7666C382.234 -2.7666 379.305 0.162854 379.305 3.77649C379.305 7.39012 382.234 10.3195 385.848 10.3195Z" fill="#252024"/>
<path d="M7.30937 26.1315C10.9169 26.1315 13.8414 23.207 13.8414 19.5994C13.8414 15.9919 10.9169 13.0674 7.30937 13.0674C3.70183 13.0674 0.777344 15.9919 0.777344 19.5994C0.777344 23.207 3.70183 26.1315 7.30937 26.1315Z" fill="#252024"/>
<path d="M43.2586 26.1315C46.8661 26.1315 49.7906 23.207 49.7906 19.5994C49.7906 15.9919 46.8661 13.0674 43.2586 13.0674C39.651 13.0674 36.7266 15.9919 36.7266 19.5994C36.7266 23.207 39.651 26.1315 43.2586 26.1315Z" fill="#252024"/>
<path d="M79.2078 26.1315C82.8154 26.1315 85.7399 23.207 85.7399 19.5994C85.7399 15.9919 82.8154 13.0674 79.2078 13.0674C75.6003 13.0674 72.6758 15.9919 72.6758 19.5994C72.6758 23.207 75.6003 26.1315 79.2078 26.1315Z" fill="#252024"/>
<path d="M115.157 26.1315C118.765 26.1315 121.689 23.207 121.689 19.5994C121.689 15.9919 118.765 13.0674 115.157 13.0674C111.549 13.0674 108.625 15.9919 108.625 19.5994C108.625 23.207 111.549 26.1315 115.157 26.1315Z" fill="#252024"/>
<path d="M151.091 26.1315C154.698 26.1315 157.623 23.207 157.623 19.5994C157.623 15.9919 154.698 13.0674 151.091 13.0674C147.483 13.0674 144.559 15.9919 144.559 19.5994C144.559 23.207 147.483 26.1315 151.091 26.1315Z" fill="#252024"/>
<path d="M187.04 26.1315C190.647 26.1315 193.572 23.207 193.572 19.5994C193.572 15.9919 190.647 13.0674 187.04 13.0674C183.432 13.0674 180.508 15.9919 180.508 19.5994C180.508 23.207 183.432 26.1315 187.04 26.1315Z" fill="#252024"/>
<path d="M222.989 26.1315C226.597 26.1315 229.521 23.207 229.521 19.5994C229.521 15.9919 226.597 13.0674 222.989 13.0674C219.382 13.0674 216.457 15.9919 216.457 19.5994C216.457 23.207 219.382 26.1315 222.989 26.1315Z" fill="#252024"/>
<path d="M258.938 26.1315C262.546 26.1315 265.47 23.207 265.47 19.5994C265.47 15.9919 262.546 13.0674 258.938 13.0674C255.331 13.0674 252.406 15.9919 252.406 19.5994C252.406 23.207 255.331 26.1315 258.938 26.1315Z" fill="#252024"/>
<path d="M294.884 26.1315C298.491 26.1315 301.416 23.207 301.416 19.5994C301.416 15.9919 298.491 13.0674 294.884 13.0674C291.276 13.0674 288.352 15.9919 288.352 19.5994C288.352 23.207 291.276 26.1315 294.884 26.1315Z" fill="#252024"/>
<path d="M330.833 26.1315C334.44 26.1315 337.365 23.207 337.365 19.5994C337.365 15.9919 334.44 13.0674 330.833 13.0674C327.225 13.0674 324.301 15.9919 324.301 19.5994C324.301 23.207 327.225 26.1315 330.833 26.1315Z" fill="#252024"/>
<path d="M366.77 26.1315C370.378 26.1315 373.302 23.207 373.302 19.5994C373.302 15.9919 370.378 13.0674 366.77 13.0674C363.163 13.0674 360.238 15.9919 360.238 19.5994C360.238 23.207 363.163 26.1315 366.77 26.1315Z" fill="#252024"/>
<path d="M402.72 26.1315C406.327 26.1315 409.252 23.207 409.252 19.5994C409.252 15.9919 406.327 13.0674 402.72 13.0674C399.112 13.0674 396.188 15.9919 396.188 19.5994C396.188 23.207 399.112 26.1315 402.72 26.1315Z" fill="#252024"/>
<path d="M26.3673 41.9758C29.9809 41.9758 32.9103 39.0464 32.9103 35.4327C32.9103 31.8191 29.9809 28.8896 26.3673 28.8896C22.7536 28.8896 19.8242 31.8191 19.8242 35.4327C19.8242 39.0464 22.7536 41.9758 26.3673 41.9758Z" fill="#252024"/>
<path d="M62.3126 41.9758C65.9262 41.9758 68.8556 39.0464 68.8556 35.4327C68.8556 31.8191 65.9262 28.8896 62.3126 28.8896C58.699 28.8896 55.7695 31.8191 55.7695 35.4327C55.7695 39.0464 58.699 41.9758 62.3126 41.9758Z" fill="#252024"/>
<path d="M98.2501 41.9758C101.864 41.9758 104.793 39.0464 104.793 35.4327C104.793 31.8191 101.864 28.8896 98.2501 28.8896C94.6365 28.8896 91.707 31.8191 91.707 35.4327C91.707 39.0464 94.6365 41.9758 98.2501 41.9758Z" fill="#252024"/>
<path d="M134.199 41.9758C137.813 41.9758 140.742 39.0464 140.742 35.4327C140.742 31.8191 137.813 28.8896 134.199 28.8896C130.586 28.8896 127.656 31.8191 127.656 35.4327C127.656 39.0464 130.586 41.9758 134.199 41.9758Z" fill="#252024"/>
<path d="M170.149 41.9758C173.762 41.9758 176.692 39.0464 176.692 35.4327C176.692 31.8191 173.762 28.8896 170.149 28.8896C166.535 28.8896 163.605 31.8191 163.605 35.4327C163.605 39.0464 166.535 41.9758 170.149 41.9758Z" fill="#252024"/>
<path d="M206.098 41.9758C209.711 41.9758 212.641 39.0464 212.641 35.4327C212.641 31.8191 209.711 28.8896 206.098 28.8896C202.484 28.8896 199.555 31.8191 199.555 35.4327C199.555 39.0464 202.484 41.9758 206.098 41.9758Z" fill="#252024"/>
<path d="M242.066 41.9758C245.68 41.9758 248.61 39.0464 248.61 35.4327C248.61 31.8191 245.68 28.8896 242.066 28.8896C238.453 28.8896 235.523 31.8191 235.523 35.4327C235.523 39.0464 238.453 41.9758 242.066 41.9758Z" fill="#252024"/>
<path d="M278.004 41.9758C281.618 41.9758 284.547 39.0464 284.547 35.4327C284.547 31.8191 281.618 28.8896 278.004 28.8896C274.39 28.8896 271.461 31.8191 271.461 35.4327C271.461 39.0464 274.39 41.9758 278.004 41.9758Z" fill="#252024"/>
<path d="M313.953 41.9758C317.567 41.9758 320.496 39.0464 320.496 35.4327C320.496 31.8191 317.567 28.8896 313.953 28.8896C310.34 28.8896 307.41 31.8191 307.41 35.4327C307.41 39.0464 310.34 41.9758 313.953 41.9758Z" fill="#252024"/>
<path d="M349.899 41.9758C353.512 41.9758 356.442 39.0464 356.442 35.4327C356.442 31.8191 353.512 28.8896 349.899 28.8896C346.285 28.8896 343.355 31.8191 343.355 35.4327C343.355 39.0464 346.285 41.9758 349.899 41.9758Z" fill="#252024"/>
<path d="M385.848 41.9758C389.461 41.9758 392.391 39.0464 392.391 35.4327C392.391 31.8191 389.461 28.8896 385.848 28.8896C382.234 28.8896 379.305 31.8191 379.305 35.4327C379.305 39.0464 382.234 41.9758 385.848 41.9758Z" fill="#252024"/>
<path d="M7.30869 57.7873C10.9223 57.7873 13.8517 54.8579 13.8517 51.2442C13.8517 47.6306 10.9223 44.7012 7.30869 44.7012C3.69505 44.7012 0.765625 47.6306 0.765625 51.2442C0.765625 54.8579 3.69505 57.7873 7.30869 57.7873Z" fill="#252024"/>
<path d="M43.2579 57.7873C46.8715 57.7873 49.801 54.8579 49.801 51.2442C49.801 47.6306 46.8715 44.7012 43.2579 44.7012C39.6443 44.7012 36.7148 47.6306 36.7148 51.2442C36.7148 54.8579 39.6443 57.7873 43.2579 57.7873Z" fill="#252024"/>
<path d="M79.2071 57.7873C82.8208 57.7873 85.7502 54.8579 85.7502 51.2442C85.7502 47.6306 82.8208 44.7012 79.2071 44.7012C75.5935 44.7012 72.6641 47.6306 72.6641 51.2442C72.6641 54.8579 75.5935 57.7873 79.2071 57.7873Z" fill="#252024"/>
<path d="M115.156 57.7873C118.77 57.7873 121.699 54.8579 121.699 51.2442C121.699 47.6306 118.77 44.7012 115.156 44.7012C111.543 44.7012 108.613 47.6306 108.613 51.2442C108.613 54.8579 111.543 57.7873 115.156 57.7873Z" fill="#252024"/>
<path d="M151.094 57.7873C154.707 57.7873 157.637 54.8579 157.637 51.2442C157.637 47.6306 154.707 44.7012 151.094 44.7012C147.48 44.7012 144.551 47.6306 144.551 51.2442C144.551 54.8579 147.48 57.7873 151.094 57.7873Z" fill="#252024"/>
<path d="M187.039 57.7873C190.653 57.7873 193.582 54.8579 193.582 51.2442C193.582 47.6306 190.653 44.7012 187.039 44.7012C183.426 44.7012 180.496 47.6306 180.496 51.2442C180.496 54.8579 183.426 57.7873 187.039 57.7873Z" fill="#252024"/>
<path d="M222.988 57.7873C226.602 57.7873 229.531 54.8579 229.531 51.2442C229.531 47.6306 226.602 44.7012 222.988 44.7012C219.375 44.7012 216.445 47.6306 216.445 51.2442C216.445 54.8579 219.375 57.7873 222.988 57.7873Z" fill="#252024"/>
<path d="M258.938 57.7873C262.551 57.7873 265.481 54.8579 265.481 51.2442C265.481 47.6306 262.551 44.7012 258.938 44.7012C255.324 44.7012 252.395 47.6306 252.395 51.2442C252.395 54.8579 255.324 57.7873 258.938 57.7873Z" fill="#252024"/>
<path d="M294.887 57.7873C298.5 57.7873 301.43 54.8579 301.43 51.2442C301.43 47.6306 298.5 44.7012 294.887 44.7012C291.273 44.7012 288.344 47.6306 288.344 51.2442C288.344 54.8579 291.273 57.7873 294.887 57.7873Z" fill="#252024"/>
<path d="M330.832 57.7873C334.446 57.7873 337.375 54.8579 337.375 51.2442C337.375 47.6306 334.446 44.7012 330.832 44.7012C327.218 44.7012 324.289 47.6306 324.289 51.2442C324.289 54.8579 327.218 57.7873 330.832 57.7873Z" fill="#252024"/>
<path d="M366.77 57.7873C370.383 57.7873 373.313 54.8579 373.313 51.2442C373.313 47.6306 370.383 44.7012 366.77 44.7012C363.156 44.7012 360.227 47.6306 360.227 51.2442C360.227 54.8579 363.156 57.7873 366.77 57.7873Z" fill="#252024"/>
<path d="M402.719 57.7873C406.332 57.7873 409.262 54.8579 409.262 51.2442C409.262 47.6306 406.332 44.7012 402.719 44.7012C399.105 44.7012 396.176 47.6306 396.176 51.2442C396.176 54.8579 399.105 57.7873 402.719 57.7873Z" fill="#252024"/>
<path d="M26.3641 73.6101C29.9716 73.6101 32.8961 70.6856 32.8961 67.078C32.8961 63.4704 29.9716 60.5459 26.3641 60.5459C22.7565 60.5459 19.832 63.4704 19.832 67.078C19.832 70.6856 22.7565 73.6101 26.3641 73.6101Z" fill="#252024"/>
<path d="M62.3133 73.6101C65.9208 73.6101 68.8453 70.6856 68.8453 67.078C68.8453 63.4704 65.9208 60.5459 62.3133 60.5459C58.7057 60.5459 55.7812 63.4704 55.7812 67.078C55.7812 70.6856 58.7057 73.6101 62.3133 73.6101Z" fill="#252024"/>
<path d="M98.2508 73.6101C101.858 73.6101 104.783 70.6856 104.783 67.078C104.783 63.4704 101.858 60.5459 98.2508 60.5459C94.6432 60.5459 91.7188 63.4704 91.7188 67.078C91.7188 70.6856 94.6432 73.6101 98.2508 73.6101Z" fill="#252024"/>
<path d="M134.2 73.6101C137.808 73.6101 140.732 70.6856 140.732 67.078C140.732 63.4704 137.808 60.5459 134.2 60.5459C130.592 60.5459 127.668 63.4704 127.668 67.078C127.668 70.6856 130.592 73.6101 134.2 73.6101Z" fill="#252024"/>
<path d="M170.149 73.6101C173.757 73.6101 176.681 70.6856 176.681 67.078C176.681 63.4704 173.757 60.5459 170.149 60.5459C166.542 60.5459 163.617 63.4704 163.617 67.078C163.617 70.6856 166.542 73.6101 170.149 73.6101Z" fill="#252024"/>
<path d="M206.095 73.6101C209.702 73.6101 212.627 70.6856 212.627 67.078C212.627 63.4704 209.702 60.5459 206.095 60.5459C202.487 60.5459 199.562 63.4704 199.562 67.078C199.562 70.6856 202.487 73.6101 206.095 73.6101Z" fill="#252024"/>
<path d="M242.067 73.6101C245.675 73.6101 248.599 70.6856 248.599 67.078C248.599 63.4704 245.675 60.5459 242.067 60.5459C238.46 60.5459 235.535 63.4704 235.535 67.078C235.535 70.6856 238.46 73.6101 242.067 73.6101Z" fill="#252024"/>
<path d="M278.005 73.6101C281.612 73.6101 284.537 70.6856 284.537 67.078C284.537 63.4704 281.612 60.5459 278.005 60.5459C274.397 60.5459 271.473 63.4704 271.473 67.078C271.473 70.6856 274.397 73.6101 278.005 73.6101Z" fill="#252024"/>
<path d="M313.95 73.6101C317.558 73.6101 320.482 70.6856 320.482 67.078C320.482 63.4704 317.558 60.5459 313.95 60.5459C310.342 60.5459 307.418 63.4704 307.418 67.078C307.418 70.6856 310.342 73.6101 313.95 73.6101Z" fill="#252024"/>
<path d="M349.899 73.6101C353.507 73.6101 356.431 70.6856 356.431 67.078C356.431 63.4704 353.507 60.5459 349.899 60.5459C346.292 60.5459 343.367 63.4704 343.367 67.078C343.367 70.6856 346.292 73.6101 349.899 73.6101Z" fill="#252024"/>
<path d="M385.848 73.6101C389.456 73.6101 392.38 70.6856 392.38 67.078C392.38 63.4704 389.456 60.5459 385.848 60.5459C382.241 60.5459 379.316 63.4704 379.316 67.078C379.316 70.6856 382.241 73.6101 385.848 73.6101Z" fill="#252024"/>
<path d="M7.30869 89.4435C10.9223 89.4435 13.8517 86.5141 13.8517 82.9004C13.8517 79.2868 10.9223 76.3574 7.30869 76.3574C3.69505 76.3574 0.765625 79.2868 0.765625 82.9004C0.765625 86.5141 3.69505 89.4435 7.30869 89.4435Z" fill="#252024"/>
<path d="M43.2579 89.4435C46.8715 89.4435 49.801 86.5141 49.801 82.9004C49.801 79.2868 46.8715 76.3574 43.2579 76.3574C39.6443 76.3574 36.7148 79.2868 36.7148 82.9004C36.7148 86.5141 39.6443 89.4435 43.2579 89.4435Z" fill="#252024"/>
<path d="M79.2071 89.4435C82.8208 89.4435 85.7502 86.5141 85.7502 82.9004C85.7502 79.2868 82.8208 76.3574 79.2071 76.3574C75.5935 76.3574 72.6641 79.2868 72.6641 82.9004C72.6641 86.5141 75.5935 89.4435 79.2071 89.4435Z" fill="#252024"/>
<path d="M115.156 89.4435C118.77 89.4435 121.699 86.5141 121.699 82.9004C121.699 79.2868 118.77 76.3574 115.156 76.3574C111.543 76.3574 108.613 79.2868 108.613 82.9004C108.613 86.5141 111.543 89.4435 115.156 89.4435Z" fill="#252024"/>
<path d="M151.094 89.4435C154.707 89.4435 157.637 86.5141 157.637 82.9004C157.637 79.2868 154.707 76.3574 151.094 76.3574C147.48 76.3574 144.551 79.2868 144.551 82.9004C144.551 86.5141 147.48 89.4435 151.094 89.4435Z" fill="#252024"/>
<path d="M187.039 89.4435C190.653 89.4435 193.582 86.5141 193.582 82.9004C193.582 79.2868 190.653 76.3574 187.039 76.3574C183.426 76.3574 180.496 79.2868 180.496 82.9004C180.496 86.5141 183.426 89.4435 187.039 89.4435Z" fill="#252024"/>
<path d="M222.988 89.4435C226.602 89.4435 229.531 86.5141 229.531 82.9004C229.531 79.2868 226.602 76.3574 222.988 76.3574C219.375 76.3574 216.445 79.2868 216.445 82.9004C216.445 86.5141 219.375 89.4435 222.988 89.4435Z" fill="#252024"/>
<path d="M258.938 89.4435C262.551 89.4435 265.481 86.5141 265.481 82.9004C265.481 79.2868 262.551 76.3574 258.938 76.3574C255.324 76.3574 252.395 79.2868 252.395 82.9004C252.395 86.5141 255.324 89.4435 258.938 89.4435Z" fill="#252024"/>
<path d="M294.887 89.4435C298.5 89.4435 301.43 86.5141 301.43 82.9004C301.43 79.2868 298.5 76.3574 294.887 76.3574C291.273 76.3574 288.344 79.2868 288.344 82.9004C288.344 86.5141 291.273 89.4435 294.887 89.4435Z" fill="#252024"/>
<path d="M330.832 89.4435C334.446 89.4435 337.375 86.5141 337.375 82.9004C337.375 79.2868 334.446 76.3574 330.832 76.3574C327.218 76.3574 324.289 79.2868 324.289 82.9004C324.289 86.5141 327.218 89.4435 330.832 89.4435Z" fill="#252024"/>
<path d="M366.77 89.4435C370.383 89.4435 373.313 86.5141 373.313 82.9004C373.313 79.2868 370.383 76.3574 366.77 76.3574C363.156 76.3574 360.227 79.2868 360.227 82.9004C360.227 86.5141 363.156 89.4435 366.77 89.4435Z" fill="#252024"/>
<path d="M402.719 89.4435C406.332 89.4435 409.262 86.5141 409.262 82.9004C409.262 79.2868 406.332 76.3574 402.719 76.3574C399.105 76.3574 396.176 79.2868 396.176 82.9004C396.176 86.5141 399.105 89.4435 402.719 89.4435Z" fill="#252024"/>
<path d="M26.3641 105.266C29.9716 105.266 32.8961 102.341 32.8961 98.7336C32.8961 95.1261 29.9716 92.2017 26.3641 92.2017C22.7565 92.2017 19.832 95.1261 19.832 98.7336C19.832 102.341 22.7565 105.266 26.3641 105.266Z" fill="#252024"/>
<path d="M62.3133 105.266C65.9208 105.266 68.8453 102.341 68.8453 98.7336C68.8453 95.1261 65.9208 92.2017 62.3133 92.2017C58.7057 92.2017 55.7812 95.1261 55.7812 98.7336C55.7812 102.341 58.7057 105.266 62.3133 105.266Z" fill="#252024"/>
<path d="M98.2508 105.266C101.858 105.266 104.783 102.341 104.783 98.7336C104.783 95.1261 101.858 92.2017 98.2508 92.2017C94.6432 92.2017 91.7188 95.1261 91.7188 98.7336C91.7188 102.341 94.6432 105.266 98.2508 105.266Z" fill="#252024"/>
<path d="M134.2 105.266C137.808 105.266 140.732 102.341 140.732 98.7336C140.732 95.1261 137.808 92.2017 134.2 92.2017C130.592 92.2017 127.668 95.1261 127.668 98.7336C127.668 102.341 130.592 105.266 134.2 105.266Z" fill="#252024"/>
<path d="M170.149 105.266C173.757 105.266 176.681 102.341 176.681 98.7336C176.681 95.1261 173.757 92.2017 170.149 92.2017C166.542 92.2017 163.617 95.1261 163.617 98.7336C163.617 102.341 166.542 105.266 170.149 105.266Z" fill="#252024"/>
<path d="M206.095 105.266C209.702 105.266 212.627 102.341 212.627 98.7336C212.627 95.1261 209.702 92.2017 206.095 92.2017C202.487 92.2017 199.562 95.1261 199.562 98.7336C199.562 102.341 202.487 105.266 206.095 105.266Z" fill="#252024"/>
<path d="M242.067 105.266C245.675 105.266 248.599 102.341 248.599 98.7336C248.599 95.1261 245.675 92.2017 242.067 92.2017C238.46 92.2017 235.535 95.1261 235.535 98.7336C235.535 102.341 238.46 105.266 242.067 105.266Z" fill="#252024"/>
<path d="M278.005 105.266C281.612 105.266 284.537 102.341 284.537 98.7336C284.537 95.1261 281.612 92.2017 278.005 92.2017C274.397 92.2017 271.473 95.1261 271.473 98.7336C271.473 102.341 274.397 105.266 278.005 105.266Z" fill="#252024"/>
<path d="M313.95 105.266C317.558 105.266 320.482 102.341 320.482 98.7336C320.482 95.1261 317.558 92.2017 313.95 92.2017C310.342 92.2017 307.418 95.1261 307.418 98.7336C307.418 102.341 310.342 105.266 313.95 105.266Z" fill="#252024"/>
<path d="M349.899 105.266C353.507 105.266 356.431 102.341 356.431 98.7336C356.431 95.1261 353.507 92.2017 349.899 92.2017C346.292 92.2017 343.367 95.1261 343.367 98.7336C343.367 102.341 346.292 105.266 349.899 105.266Z" fill="#252024"/>
<path d="M385.848 105.266C389.456 105.266 392.38 102.341 392.38 98.7336C392.38 95.1261 389.456 92.2017 385.848 92.2017C382.241 92.2017 379.316 95.1261 379.316 98.7336C379.316 102.341 382.241 105.266 385.848 105.266Z" fill="#252024"/>
<path d="M7.30937 121.088C10.9169 121.088 13.8414 118.164 13.8414 114.556C13.8414 110.949 10.9169 108.024 7.30937 108.024C3.70183 108.024 0.777344 110.949 0.777344 114.556C0.777344 118.164 3.70183 121.088 7.30937 121.088Z" fill="#252024"/>
<path d="M43.2586 121.088C46.8661 121.088 49.7906 118.164 49.7906 114.556C49.7906 110.949 46.8661 108.024 43.2586 108.024C39.651 108.024 36.7266 110.949 36.7266 114.556C36.7266 118.164 39.651 121.088 43.2586 121.088Z" fill="#252024"/>
<path d="M79.2078 121.088C82.8154 121.088 85.7399 118.164 85.7399 114.556C85.7399 110.949 82.8154 108.024 79.2078 108.024C75.6003 108.024 72.6758 110.949 72.6758 114.556C72.6758 118.164 75.6003 121.088 79.2078 121.088Z" fill="#252024"/>
<path d="M115.157 121.088C118.765 121.088 121.689 118.164 121.689 114.556C121.689 110.949 118.765 108.024 115.157 108.024C111.549 108.024 108.625 110.949 108.625 114.556C108.625 118.164 111.549 121.088 115.157 121.088Z" fill="#252024"/>
<path d="M151.091 121.088C154.698 121.088 157.623 118.164 157.623 114.556C157.623 110.949 154.698 108.024 151.091 108.024C147.483 108.024 144.559 110.949 144.559 114.556C144.559 118.164 147.483 121.088 151.091 121.088Z" fill="#252024"/>
<path d="M187.04 121.088C190.647 121.088 193.572 118.164 193.572 114.556C193.572 110.949 190.647 108.024 187.04 108.024C183.432 108.024 180.508 110.949 180.508 114.556C180.508 118.164 183.432 121.088 187.04 121.088Z" fill="#252024"/>
<path d="M222.989 121.088C226.597 121.088 229.521 118.164 229.521 114.556C229.521 110.949 226.597 108.024 222.989 108.024C219.382 108.024 216.457 110.949 216.457 114.556C216.457 118.164 219.382 121.088 222.989 121.088Z" fill="#252024"/>
<path d="M258.938 121.088C262.546 121.088 265.47 118.164 265.47 114.556C265.47 110.949 262.546 108.024 258.938 108.024C255.331 108.024 252.406 110.949 252.406 114.556C252.406 118.164 255.331 121.088 258.938 121.088Z" fill="#252024"/>
<path d="M294.884 121.088C298.491 121.088 301.416 118.164 301.416 114.556C301.416 110.949 298.491 108.024 294.884 108.024C291.276 108.024 288.352 110.949 288.352 114.556C288.352 118.164 291.276 121.088 294.884 121.088Z" fill="#252024"/>
<path d="M330.833 121.088C334.44 121.088 337.365 118.164 337.365 114.556C337.365 110.949 334.44 108.024 330.833 108.024C327.225 108.024 324.301 110.949 324.301 114.556C324.301 118.164 327.225 121.088 330.833 121.088Z" fill="#252024"/>
<path d="M366.77 121.088C370.378 121.088 373.302 118.164 373.302 114.556C373.302 110.949 370.378 108.024 366.77 108.024C363.163 108.024 360.238 110.949 360.238 114.556C360.238 118.164 363.163 121.088 366.77 121.088Z" fill="#252024"/>
<path d="M402.72 121.088C406.327 121.088 409.252 118.164 409.252 114.556C409.252 110.949 406.327 108.024 402.72 108.024C399.112 108.024 396.188 110.949 396.188 114.556C396.188 118.164 399.112 121.088 402.72 121.088Z" fill="#252024"/>
<path d="M26.3673 136.922C29.9809 136.922 32.9103 133.993 32.9103 130.379C32.9103 126.765 29.9809 123.836 26.3673 123.836C22.7536 123.836 19.8242 126.765 19.8242 130.379C19.8242 133.993 22.7536 136.922 26.3673 136.922Z" fill="#252024"/>
<path d="M62.3126 136.922C65.9262 136.922 68.8556 133.993 68.8556 130.379C68.8556 126.765 65.9262 123.836 62.3126 123.836C58.699 123.836 55.7695 126.765 55.7695 130.379C55.7695 133.993 58.699 136.922 62.3126 136.922Z" fill="#252024"/>
<path d="M98.2501 136.922C101.864 136.922 104.793 133.993 104.793 130.379C104.793 126.765 101.864 123.836 98.2501 123.836C94.6365 123.836 91.707 126.765 91.707 130.379C91.707 133.993 94.6365 136.922 98.2501 136.922Z" fill="#252024"/>
<path d="M134.199 136.922C137.813 136.922 140.742 133.993 140.742 130.379C140.742 126.765 137.813 123.836 134.199 123.836C130.586 123.836 127.656 126.765 127.656 130.379C127.656 133.993 130.586 136.922 134.199 136.922Z" fill="#252024"/>
<path d="M170.149 136.922C173.762 136.922 176.692 133.993 176.692 130.379C176.692 126.765 173.762 123.836 170.149 123.836C166.535 123.836 163.605 126.765 163.605 130.379C163.605 133.993 166.535 136.922 170.149 136.922Z" fill="#252024"/>
<path d="M206.098 136.922C209.711 136.922 212.641 133.993 212.641 130.379C212.641 126.765 209.711 123.836 206.098 123.836C202.484 123.836 199.555 126.765 199.555 130.379C199.555 133.993 202.484 136.922 206.098 136.922Z" fill="#252024"/>
<path d="M242.066 136.922C245.68 136.922 248.61 133.993 248.61 130.379C248.61 126.765 245.68 123.836 242.066 123.836C238.453 123.836 235.523 126.765 235.523 130.379C235.523 133.993 238.453 136.922 242.066 136.922Z" fill="#252024"/>
<path d="M278.004 136.922C281.618 136.922 284.547 133.993 284.547 130.379C284.547 126.765 281.618 123.836 278.004 123.836C274.39 123.836 271.461 126.765 271.461 130.379C271.461 133.993 274.39 136.922 278.004 136.922Z" fill="#252024"/>
<path d="M313.953 136.922C317.567 136.922 320.496 133.993 320.496 130.379C320.496 126.765 317.567 123.836 313.953 123.836C310.34 123.836 307.41 126.765 307.41 130.379C307.41 133.993 310.34 136.922 313.953 136.922Z" fill="#252024"/>
<path d="M349.899 136.922C353.512 136.922 356.442 133.993 356.442 130.379C356.442 126.765 353.512 123.836 349.899 123.836C346.285 123.836 343.355 126.765 343.355 130.379C343.355 133.993 346.285 136.922 349.899 136.922Z" fill="#252024"/>
<path d="M385.848 136.922C389.461 136.922 392.391 133.993 392.391 130.379C392.391 126.765 389.461 123.836 385.848 123.836C382.234 123.836 379.305 126.765 379.305 130.379C379.305 133.993 382.234 136.922 385.848 136.922Z" fill="#252024"/>
<path d="M7.30937 152.745C10.9169 152.745 13.8414 149.82 13.8414 146.213C13.8414 142.605 10.9169 139.681 7.30937 139.681C3.70183 139.681 0.777344 142.605 0.777344 146.213C0.777344 149.82 3.70183 152.745 7.30937 152.745Z" fill="#252024"/>
<path d="M43.2586 152.745C46.8661 152.745 49.7906 149.82 49.7906 146.213C49.7906 142.605 46.8661 139.681 43.2586 139.681C39.651 139.681 36.7266 142.605 36.7266 146.213C36.7266 149.82 39.651 152.745 43.2586 152.745Z" fill="#252024"/>
<path d="M79.2078 152.745C82.8154 152.745 85.7399 149.82 85.7399 146.213C85.7399 142.605 82.8154 139.681 79.2078 139.681C75.6003 139.681 72.6758 142.605 72.6758 146.213C72.6758 149.82 75.6003 152.745 79.2078 152.745Z" fill="#252024"/>
<path d="M115.157 152.745C118.765 152.745 121.689 149.82 121.689 146.213C121.689 142.605 118.765 139.681 115.157 139.681C111.549 139.681 108.625 142.605 108.625 146.213C108.625 149.82 111.549 152.745 115.157 152.745Z" fill="#252024"/>
<path d="M151.091 152.745C154.698 152.745 157.623 149.82 157.623 146.213C157.623 142.605 154.698 139.681 151.091 139.681C147.483 139.681 144.559 142.605 144.559 146.213C144.559 149.82 147.483 152.745 151.091 152.745Z" fill="#252024"/>
<path d="M187.04 152.745C190.647 152.745 193.572 149.82 193.572 146.213C193.572 142.605 190.647 139.681 187.04 139.681C183.432 139.681 180.508 142.605 180.508 146.213C180.508 149.82 183.432 152.745 187.04 152.745Z" fill="#252024"/>
<path d="M222.989 152.745C226.597 152.745 229.521 149.82 229.521 146.213C229.521 142.605 226.597 139.681 222.989 139.681C219.382 139.681 216.457 142.605 216.457 146.213C216.457 149.82 219.382 152.745 222.989 152.745Z" fill="#252024"/>
<path d="M258.938 152.745C262.546 152.745 265.47 149.82 265.47 146.213C265.47 142.605 262.546 139.681 258.938 139.681C255.331 139.681 252.406 142.605 252.406 146.213C252.406 149.82 255.331 152.745 258.938 152.745Z" fill="#252024"/>
<path d="M294.884 152.745C298.491 152.745 301.416 149.82 301.416 146.213C301.416 142.605 298.491 139.681 294.884 139.681C291.276 139.681 288.352 142.605 288.352 146.213C288.352 149.82 291.276 152.745 294.884 152.745Z" fill="#252024"/>
<path d="M330.833 152.745C334.44 152.745 337.365 149.82 337.365 146.213C337.365 142.605 334.44 139.681 330.833 139.681C327.225 139.681 324.301 142.605 324.301 146.213C324.301 149.82 327.225 152.745 330.833 152.745Z" fill="#252024"/>
<path d="M366.77 152.745C370.378 152.745 373.302 149.82 373.302 146.213C373.302 142.605 370.378 139.681 366.77 139.681C363.163 139.681 360.238 142.605 360.238 146.213C360.238 149.82 363.163 152.745 366.77 152.745Z" fill="#252024"/>
<path d="M402.72 152.745C406.327 152.745 409.252 149.82 409.252 146.213C409.252 142.605 406.327 139.681 402.72 139.681C399.112 139.681 396.188 142.605 396.188 146.213C396.188 149.82 399.112 152.745 402.72 152.745Z" fill="#252024"/>
<path d="M26.3673 168.578C29.9809 168.578 32.9103 165.649 32.9103 162.035C32.9103 158.422 29.9809 155.492 26.3673 155.492C22.7536 155.492 19.8242 158.422 19.8242 162.035C19.8242 165.649 22.7536 168.578 26.3673 168.578Z" fill="#252024"/>
<path d="M62.3126 168.578C65.9262 168.578 68.8556 165.649 68.8556 162.035C68.8556 158.422 65.9262 155.492 62.3126 155.492C58.699 155.492 55.7695 158.422 55.7695 162.035C55.7695 165.649 58.699 168.578 62.3126 168.578Z" fill="#252024"/>
<path d="M98.2501 168.578C101.864 168.578 104.793 165.649 104.793 162.035C104.793 158.422 101.864 155.492 98.2501 155.492C94.6365 155.492 91.707 158.422 91.707 162.035C91.707 165.649 94.6365 168.578 98.2501 168.578Z" fill="#252024"/>
<path d="M134.199 168.578C137.813 168.578 140.742 165.649 140.742 162.035C140.742 158.422 137.813 155.492 134.199 155.492C130.586 155.492 127.656 158.422 127.656 162.035C127.656 165.649 130.586 168.578 134.199 168.578Z" fill="#252024"/>
<path d="M170.149 168.578C173.762 168.578 176.692 165.649 176.692 162.035C176.692 158.422 173.762 155.492 170.149 155.492C166.535 155.492 163.605 158.422 163.605 162.035C163.605 165.649 166.535 168.578 170.149 168.578Z" fill="#252024"/>
<path d="M206.098 168.578C209.711 168.578 212.641 165.649 212.641 162.035C212.641 158.422 209.711 155.492 206.098 155.492C202.484 155.492 199.555 158.422 199.555 162.035C199.555 165.649 202.484 168.578 206.098 168.578Z" fill="#252024"/>
<path d="M242.066 168.578C245.68 168.578 248.61 165.649 248.61 162.035C248.61 158.422 245.68 155.492 242.066 155.492C238.453 155.492 235.523 158.422 235.523 162.035C235.523 165.649 238.453 168.578 242.066 168.578Z" fill="#252024"/>
<path d="M278.004 168.578C281.618 168.578 284.547 165.649 284.547 162.035C284.547 158.422 281.618 155.492 278.004 155.492C274.39 155.492 271.461 158.422 271.461 162.035C271.461 165.649 274.39 168.578 278.004 168.578Z" fill="#252024"/>
<path d="M313.953 168.578C317.567 168.578 320.496 165.649 320.496 162.035C320.496 158.422 317.567 155.492 313.953 155.492C310.34 155.492 307.41 158.422 307.41 162.035C307.41 165.649 310.34 168.578 313.953 168.578Z" fill="#252024"/>
<path d="M349.899 168.578C353.512 168.578 356.442 165.649 356.442 162.035C356.442 158.422 353.512 155.492 349.899 155.492C346.285 155.492 343.355 158.422 343.355 162.035C343.355 165.649 346.285 168.578 349.899 168.578Z" fill="#252024"/>
<path d="M385.848 168.578C389.461 168.578 392.391 165.649 392.391 162.035C392.391 158.422 389.461 155.492 385.848 155.492C382.234 155.492 379.305 158.422 379.305 162.035C379.305 165.649 382.234 168.578 385.848 168.578Z" fill="#252024"/>
<path d="M7.30869 184.401C10.9223 184.401 13.8517 181.471 13.8517 177.858C13.8517 174.244 10.9223 171.314 7.30869 171.314C3.69505 171.314 0.765625 174.244 0.765625 177.858C0.765625 181.471 3.69505 184.401 7.30869 184.401Z" fill="#252024"/>
<path d="M43.2579 184.401C46.8715 184.401 49.801 181.471 49.801 177.858C49.801 174.244 46.8715 171.314 43.2579 171.314C39.6443 171.314 36.7148 174.244 36.7148 177.858C36.7148 181.471 39.6443 184.401 43.2579 184.401Z" fill="#252024"/>
<path d="M79.2071 184.401C82.8208 184.401 85.7502 181.471 85.7502 177.858C85.7502 174.244 82.8208 171.314 79.2071 171.314C75.5935 171.314 72.6641 174.244 72.6641 177.858C72.6641 181.471 75.5935 184.401 79.2071 184.401Z" fill="#252024"/>
<path d="M115.156 184.401C118.77 184.401 121.699 181.471 121.699 177.858C121.699 174.244 118.77 171.314 115.156 171.314C111.543 171.314 108.613 174.244 108.613 177.858C108.613 181.471 111.543 184.401 115.156 184.401Z" fill="#252024"/>
<path d="M151.094 184.401C154.707 184.401 157.637 181.471 157.637 177.858C157.637 174.244 154.707 171.314 151.094 171.314C147.48 171.314 144.551 174.244 144.551 177.858C144.551 181.471 147.48 184.401 151.094 184.401Z" fill="#252024"/>
<path d="M187.039 184.401C190.653 184.401 193.582 181.471 193.582 177.858C193.582 174.244 190.653 171.314 187.039 171.314C183.426 171.314 180.496 174.244 180.496 177.858C180.496 181.471 183.426 184.401 187.039 184.401Z" fill="#252024"/>
<path d="M222.988 184.401C226.602 184.401 229.531 181.471 229.531 177.858C229.531 174.244 226.602 171.314 222.988 171.314C219.375 171.314 216.445 174.244 216.445 177.858C216.445 181.471 219.375 184.401 222.988 184.401Z" fill="#252024"/>
<path d="M258.938 184.401C262.551 184.401 265.481 181.471 265.481 177.858C265.481 174.244 262.551 171.314 258.938 171.314C255.324 171.314 252.395 174.244 252.395 177.858C252.395 181.471 255.324 184.401 258.938 184.401Z" fill="#252024"/>
<path d="M294.887 184.401C298.5 184.401 301.43 181.471 301.43 177.858C301.43 174.244 298.5 171.314 294.887 171.314C291.273 171.314 288.344 174.244 288.344 177.858C288.344 181.471 291.273 184.401 294.887 184.401Z" fill="#252024"/>
<path d="M330.832 184.401C334.446 184.401 337.375 181.471 337.375 177.858C337.375 174.244 334.446 171.314 330.832 171.314C327.218 171.314 324.289 174.244 324.289 177.858C324.289 181.471 327.218 184.401 330.832 184.401Z" fill="#252024"/>
<path d="M366.77 184.401C370.383 184.401 373.313 181.471 373.313 177.858C373.313 174.244 370.383 171.314 366.77 171.314C363.156 171.314 360.227 174.244 360.227 177.858C360.227 181.471 363.156 184.401 366.77 184.401Z" fill="#252024"/>
<path d="M402.719 184.401C406.332 184.401 409.262 181.471 409.262 177.858C409.262 174.244 406.332 171.314 402.719 171.314C399.105 171.314 396.176 174.244 396.176 177.858C396.176 181.471 399.105 184.401 402.719 184.401Z" fill="#252024"/>
<path d="M26.3641 200.212C29.9716 200.212 32.8961 197.288 32.8961 193.68C32.8961 190.072 29.9716 187.148 26.3641 187.148C22.7565 187.148 19.832 190.072 19.832 193.68C19.832 197.288 22.7565 200.212 26.3641 200.212Z" fill="#252024"/>
<path d="M62.3133 200.212C65.9208 200.212 68.8453 197.288 68.8453 193.68C68.8453 190.072 65.9208 187.148 62.3133 187.148C58.7057 187.148 55.7812 190.072 55.7812 193.68C55.7812 197.288 58.7057 200.212 62.3133 200.212Z" fill="#252024"/>
<path d="M98.2508 200.212C101.858 200.212 104.783 197.288 104.783 193.68C104.783 190.072 101.858 187.148 98.2508 187.148C94.6432 187.148 91.7188 190.072 91.7188 193.68C91.7188 197.288 94.6432 200.212 98.2508 200.212Z" fill="#252024"/>
<path d="M134.2 200.212C137.808 200.212 140.732 197.288 140.732 193.68C140.732 190.072 137.808 187.148 134.2 187.148C130.592 187.148 127.668 190.072 127.668 193.68C127.668 197.288 130.592 200.212 134.2 200.212Z" fill="#252024"/>
<path d="M170.149 200.212C173.757 200.212 176.681 197.288 176.681 193.68C176.681 190.072 173.757 187.148 170.149 187.148C166.542 187.148 163.617 190.072 163.617 193.68C163.617 197.288 166.542 200.212 170.149 200.212Z" fill="#252024"/>
<path d="M206.095 200.212C209.702 200.212 212.627 197.288 212.627 193.68C212.627 190.072 209.702 187.148 206.095 187.148C202.487 187.148 199.562 190.072 199.562 193.68C199.562 197.288 202.487 200.212 206.095 200.212Z" fill="#252024"/>
<path d="M242.067 200.212C245.675 200.212 248.599 197.288 248.599 193.68C248.599 190.072 245.675 187.148 242.067 187.148C238.46 187.148 235.535 190.072 235.535 193.68C235.535 197.288 238.46 200.212 242.067 200.212Z" fill="#252024"/>
<path d="M278.005 200.212C281.612 200.212 284.537 197.288 284.537 193.68C284.537 190.072 281.612 187.148 278.005 187.148C274.397 187.148 271.473 190.072 271.473 193.68C271.473 197.288 274.397 200.212 278.005 200.212Z" fill="#252024"/>
<path d="M313.95 200.212C317.558 200.212 320.482 197.288 320.482 193.68C320.482 190.072 317.558 187.148 313.95 187.148C310.342 187.148 307.418 190.072 307.418 193.68C307.418 197.288 310.342 200.212 313.95 200.212Z" fill="#252024"/>
<path d="M349.899 200.212C353.507 200.212 356.431 197.288 356.431 193.68C356.431 190.072 353.507 187.148 349.899 187.148C346.292 187.148 343.367 190.072 343.367 193.68C343.367 197.288 346.292 200.212 349.899 200.212Z" fill="#252024"/>
<path d="M385.848 200.212C389.456 200.212 392.38 197.288 392.38 193.68C392.38 190.072 389.456 187.148 385.848 187.148C382.241 187.148 379.316 190.072 379.316 193.68C379.316 197.288 382.241 200.212 385.848 200.212Z" fill="#252024"/>
<path d="M7.30869 216.057C10.9223 216.057 13.8517 213.127 13.8517 209.514C13.8517 205.9 10.9223 202.971 7.30869 202.971C3.69505 202.971 0.765625 205.9 0.765625 209.514C0.765625 213.127 3.69505 216.057 7.30869 216.057Z" fill="#252024"/>
<path d="M43.2579 216.057C46.8715 216.057 49.801 213.127 49.801 209.514C49.801 205.9 46.8715 202.971 43.2579 202.971C39.6443 202.971 36.7148 205.9 36.7148 209.514C36.7148 213.127 39.6443 216.057 43.2579 216.057Z" fill="#252024"/>
<path d="M79.2071 216.057C82.8208 216.057 85.7502 213.127 85.7502 209.514C85.7502 205.9 82.8208 202.971 79.2071 202.971C75.5935 202.971 72.6641 205.9 72.6641 209.514C72.6641 213.127 75.5935 216.057 79.2071 216.057Z" fill="#252024"/>
<path d="M115.156 216.057C118.77 216.057 121.699 213.127 121.699 209.514C121.699 205.9 118.77 202.971 115.156 202.971C111.543 202.971 108.613 205.9 108.613 209.514C108.613 213.127 111.543 216.057 115.156 216.057Z" fill="#252024"/>
<path d="M151.094 216.057C154.707 216.057 157.637 213.127 157.637 209.514C157.637 205.9 154.707 202.971 151.094 202.971C147.48 202.971 144.551 205.9 144.551 209.514C144.551 213.127 147.48 216.057 151.094 216.057Z" fill="#252024"/>
<path d="M187.039 216.057C190.653 216.057 193.582 213.127 193.582 209.514C193.582 205.9 190.653 202.971 187.039 202.971C183.426 202.971 180.496 205.9 180.496 209.514C180.496 213.127 183.426 216.057 187.039 216.057Z" fill="#252024"/>
<path d="M222.988 216.057C226.602 216.057 229.531 213.127 229.531 209.514C229.531 205.9 226.602 202.971 222.988 202.971C219.375 202.971 216.445 205.9 216.445 209.514C216.445 213.127 219.375 216.057 222.988 216.057Z" fill="#252024"/>
<path d="M258.938 216.057C262.551 216.057 265.481 213.127 265.481 209.514C265.481 205.9 262.551 202.971 258.938 202.971C255.324 202.971 252.395 205.9 252.395 209.514C252.395 213.127 255.324 216.057 258.938 216.057Z" fill="#252024"/>
<path d="M294.887 216.057C298.5 216.057 301.43 213.127 301.43 209.514C301.43 205.9 298.5 202.971 294.887 202.971C291.273 202.971 288.344 205.9 288.344 209.514C288.344 213.127 291.273 216.057 294.887 216.057Z" fill="#252024"/>
<path d="M330.832 216.057C334.446 216.057 337.375 213.127 337.375 209.514C337.375 205.9 334.446 202.971 330.832 202.971C327.218 202.971 324.289 205.9 324.289 209.514C324.289 213.127 327.218 216.057 330.832 216.057Z" fill="#252024"/>
<path d="M366.77 216.057C370.383 216.057 373.313 213.127 373.313 209.514C373.313 205.9 370.383 202.971 366.77 202.971C363.156 202.971 360.227 205.9 360.227 209.514C360.227 213.127 363.156 216.057 366.77 216.057Z" fill="#252024"/>
<path d="M402.719 216.057C406.332 216.057 409.262 213.127 409.262 209.514C409.262 205.9 406.332 202.971 402.719 202.971C399.105 202.971 396.176 205.9 396.176 209.514C396.176 213.127 399.105 216.057 402.719 216.057Z" fill="#252024"/>
<path d="M26.3641 231.879C29.9716 231.879 32.8961 228.955 32.8961 225.347C32.8961 221.739 29.9716 218.815 26.3641 218.815C22.7565 218.815 19.832 221.739 19.832 225.347C19.832 228.955 22.7565 231.879 26.3641 231.879Z" fill="#252024"/>
<path d="M62.3133 231.879C65.9208 231.879 68.8453 228.955 68.8453 225.347C68.8453 221.739 65.9208 218.815 62.3133 218.815C58.7057 218.815 55.7812 221.739 55.7812 225.347C55.7812 228.955 58.7057 231.879 62.3133 231.879Z" fill="#252024"/>
<path d="M98.2508 231.879C101.858 231.879 104.783 228.955 104.783 225.347C104.783 221.739 101.858 218.815 98.2508 218.815C94.6432 218.815 91.7188 221.739 91.7188 225.347C91.7188 228.955 94.6432 231.879 98.2508 231.879Z" fill="#252024"/>
<path d="M134.2 231.879C137.808 231.879 140.732 228.955 140.732 225.347C140.732 221.739 137.808 218.815 134.2 218.815C130.592 218.815 127.668 221.739 127.668 225.347C127.668 228.955 130.592 231.879 134.2 231.879Z" fill="#252024"/>
<path d="M170.149 231.879C173.757 231.879 176.681 228.955 176.681 225.347C176.681 221.739 173.757 218.815 170.149 218.815C166.542 218.815 163.617 221.739 163.617 225.347C163.617 228.955 166.542 231.879 170.149 231.879Z" fill="#252024"/>
<path d="M206.095 231.879C209.702 231.879 212.627 228.955 212.627 225.347C212.627 221.739 209.702 218.815 206.095 218.815C202.487 218.815 199.562 221.739 199.562 225.347C199.562 228.955 202.487 231.879 206.095 231.879Z" fill="#252024"/>
<path d="M242.067 231.879C245.675 231.879 248.599 228.955 248.599 225.347C248.599 221.739 245.675 218.815 242.067 218.815C238.46 218.815 235.535 221.739 235.535 225.347C235.535 228.955 238.46 231.879 242.067 231.879Z" fill="#252024"/>
<path d="M278.005 231.879C281.612 231.879 284.537 228.955 284.537 225.347C284.537 221.739 281.612 218.815 278.005 218.815C274.397 218.815 271.473 221.739 271.473 225.347C271.473 228.955 274.397 231.879 278.005 231.879Z" fill="#252024"/>
<path d="M313.95 231.879C317.558 231.879 320.482 228.955 320.482 225.347C320.482 221.739 317.558 218.815 313.95 218.815C310.342 218.815 307.418 221.739 307.418 225.347C307.418 228.955 310.342 231.879 313.95 231.879Z" fill="#252024"/>
<path d="M349.899 231.879C353.507 231.879 356.431 228.955 356.431 225.347C356.431 221.739 353.507 218.815 349.899 218.815C346.292 218.815 343.367 221.739 343.367 225.347C343.367 228.955 346.292 231.879 349.899 231.879Z" fill="#252024"/>
<path d="M385.848 231.879C389.456 231.879 392.38 228.955 392.38 225.347C392.38 221.739 389.456 218.815 385.848 218.815C382.241 218.815 379.316 221.739 379.316 225.347C379.316 228.955 382.241 231.879 385.848 231.879Z" fill="#252024"/>
<path d="M7.30937 247.691C10.9169 247.691 13.8414 244.767 13.8414 241.159C13.8414 237.551 10.9169 234.627 7.30937 234.627C3.70183 234.627 0.777344 237.551 0.777344 241.159C0.777344 244.767 3.70183 247.691 7.30937 247.691Z" fill="#252024"/>
<path d="M43.2586 247.691C46.8661 247.691 49.7906 244.767 49.7906 241.159C49.7906 237.551 46.8661 234.627 43.2586 234.627C39.651 234.627 36.7266 237.551 36.7266 241.159C36.7266 244.767 39.651 247.691 43.2586 247.691Z" fill="#252024"/>
<path d="M79.2078 247.691C82.8154 247.691 85.7399 244.767 85.7399 241.159C85.7399 237.551 82.8154 234.627 79.2078 234.627C75.6003 234.627 72.6758 237.551 72.6758 241.159C72.6758 244.767 75.6003 247.691 79.2078 247.691Z" fill="#252024"/>
<path d="M115.157 247.691C118.765 247.691 121.689 244.767 121.689 241.159C121.689 237.551 118.765 234.627 115.157 234.627C111.549 234.627 108.625 237.551 108.625 241.159C108.625 244.767 111.549 247.691 115.157 247.691Z" fill="#252024"/>
<path d="M151.091 247.691C154.698 247.691 157.623 244.767 157.623 241.159C157.623 237.551 154.698 234.627 151.091 234.627C147.483 234.627 144.559 237.551 144.559 241.159C144.559 244.767 147.483 247.691 151.091 247.691Z" fill="#252024"/>
<path d="M187.04 247.691C190.647 247.691 193.572 244.767 193.572 241.159C193.572 237.551 190.647 234.627 187.04 234.627C183.432 234.627 180.508 237.551 180.508 241.159C180.508 244.767 183.432 247.691 187.04 247.691Z" fill="#252024"/>
<path d="M222.989 247.691C226.597 247.691 229.521 244.767 229.521 241.159C229.521 237.551 226.597 234.627 222.989 234.627C219.382 234.627 216.457 237.551 216.457 241.159C216.457 244.767 219.382 247.691 222.989 247.691Z" fill="#252024"/>
<path d="M258.938 247.691C262.546 247.691 265.47 244.767 265.47 241.159C265.47 237.551 262.546 234.627 258.938 234.627C255.331 234.627 252.406 237.551 252.406 241.159C252.406 244.767 255.331 247.691 258.938 247.691Z" fill="#252024"/>
<path d="M294.884 247.691C298.491 247.691 301.416 244.767 301.416 241.159C301.416 237.551 298.491 234.627 294.884 234.627C291.276 234.627 288.352 237.551 288.352 241.159C288.352 244.767 291.276 247.691 294.884 247.691Z" fill="#252024"/>
<path d="M330.833 247.691C334.44 247.691 337.365 244.767 337.365 241.159C337.365 237.551 334.44 234.627 330.833 234.627C327.225 234.627 324.301 237.551 324.301 241.159C324.301 244.767 327.225 247.691 330.833 247.691Z" fill="#252024"/>
<path d="M366.77 247.691C370.378 247.691 373.302 244.767 373.302 241.159C373.302 237.551 370.378 234.627 366.77 234.627C363.163 234.627 360.238 237.551 360.238 241.159C360.238 244.767 363.163 247.691 366.77 247.691Z" fill="#252024"/>
<path d="M402.72 247.691C406.327 247.691 409.252 244.767 409.252 241.159C409.252 237.551 406.327 234.627 402.72 234.627C399.112 234.627 396.188 237.551 396.188 241.159C396.188 244.767 399.112 247.691 402.72 247.691Z" fill="#252024"/>
<path d="M26.3673 263.535C29.9809 263.535 32.9103 260.606 32.9103 256.992C32.9103 253.379 29.9809 250.449 26.3673 250.449C22.7536 250.449 19.8242 253.379 19.8242 256.992C19.8242 260.606 22.7536 263.535 26.3673 263.535Z" fill="#252024"/>
<path d="M62.3126 263.535C65.9262 263.535 68.8556 260.606 68.8556 256.992C68.8556 253.379 65.9262 250.449 62.3126 250.449C58.699 250.449 55.7695 253.379 55.7695 256.992C55.7695 260.606 58.699 263.535 62.3126 263.535Z" fill="#252024"/>
<path d="M98.2501 263.535C101.864 263.535 104.793 260.606 104.793 256.992C104.793 253.379 101.864 250.449 98.2501 250.449C94.6365 250.449 91.707 253.379 91.707 256.992C91.707 260.606 94.6365 263.535 98.2501 263.535Z" fill="#252024"/>
<path d="M134.199 263.535C137.813 263.535 140.742 260.606 140.742 256.992C140.742 253.379 137.813 250.449 134.199 250.449C130.586 250.449 127.656 253.379 127.656 256.992C127.656 260.606 130.586 263.535 134.199 263.535Z" fill="#252024"/>
<path d="M170.149 263.535C173.762 263.535 176.692 260.606 176.692 256.992C176.692 253.379 173.762 250.449 170.149 250.449C166.535 250.449 163.605 253.379 163.605 256.992C163.605 260.606 166.535 263.535 170.149 263.535Z" fill="#252024"/>
<path d="M206.098 263.535C209.711 263.535 212.641 260.606 212.641 256.992C212.641 253.379 209.711 250.449 206.098 250.449C202.484 250.449 199.555 253.379 199.555 256.992C199.555 260.606 202.484 263.535 206.098 263.535Z" fill="#252024"/>
<path d="M242.066 263.535C245.68 263.535 248.61 260.606 248.61 256.992C248.61 253.379 245.68 250.449 242.066 250.449C238.453 250.449 235.523 253.379 235.523 256.992C235.523 260.606 238.453 263.535 242.066 263.535Z" fill="#252024"/>
<path d="M278.004 263.535C281.618 263.535 284.547 260.606 284.547 256.992C284.547 253.379 281.618 250.449 278.004 250.449C274.39 250.449 271.461 253.379 271.461 256.992C271.461 260.606 274.39 263.535 278.004 263.535Z" fill="#252024"/>
<path d="M313.953 263.535C317.567 263.535 320.496 260.606 320.496 256.992C320.496 253.379 317.567 250.449 313.953 250.449C310.34 250.449 307.41 253.379 307.41 256.992C307.41 260.606 310.34 263.535 313.953 263.535Z" fill="#252024"/>
<path d="M349.899 263.535C353.512 263.535 356.442 260.606 356.442 256.992C356.442 253.379 353.512 250.449 349.899 250.449C346.285 250.449 343.355 253.379 343.355 256.992C343.355 260.606 346.285 263.535 349.899 263.535Z" fill="#252024"/>
<path d="M385.848 263.535C389.461 263.535 392.391 260.606 392.391 256.992C392.391 253.379 389.461 250.449 385.848 250.449C382.234 250.449 379.305 253.379 379.305 256.992C379.305 260.606 382.234 263.535 385.848 263.535Z" fill="#252024"/>
<path d="M7.30937 279.347C10.9169 279.347 13.8414 276.422 13.8414 272.815C13.8414 269.207 10.9169 266.283 7.30937 266.283C3.70183 266.283 0.777344 269.207 0.777344 272.815C0.777344 276.422 3.70183 279.347 7.30937 279.347Z" fill="#252024"/>
<path d="M43.2586 279.347C46.8661 279.347 49.7906 276.422 49.7906 272.815C49.7906 269.207 46.8661 266.283 43.2586 266.283C39.651 266.283 36.7266 269.207 36.7266 272.815C36.7266 276.422 39.651 279.347 43.2586 279.347Z" fill="#252024"/>
<path d="M79.2078 279.347C82.8154 279.347 85.7399 276.422 85.7399 272.815C85.7399 269.207 82.8154 266.283 79.2078 266.283C75.6003 266.283 72.6758 269.207 72.6758 272.815C72.6758 276.422 75.6003 279.347 79.2078 279.347Z" fill="#252024"/>
<path d="M115.157 279.347C118.765 279.347 121.689 276.422 121.689 272.815C121.689 269.207 118.765 266.283 115.157 266.283C111.549 266.283 108.625 269.207 108.625 272.815C108.625 276.422 111.549 279.347 115.157 279.347Z" fill="#252024"/>
<path d="M151.091 279.347C154.698 279.347 157.623 276.422 157.623 272.815C157.623 269.207 154.698 266.283 151.091 266.283C147.483 266.283 144.559 269.207 144.559 272.815C144.559 276.422 147.483 279.347 151.091 279.347Z" fill="#252024"/>
<path d="M187.04 279.347C190.647 279.347 193.572 276.422 193.572 272.815C193.572 269.207 190.647 266.283 187.04 266.283C183.432 266.283 180.508 269.207 180.508 272.815C180.508 276.422 183.432 279.347 187.04 279.347Z" fill="#252024"/>
<path d="M222.989 279.347C226.597 279.347 229.521 276.422 229.521 272.815C229.521 269.207 226.597 266.283 222.989 266.283C219.382 266.283 216.457 269.207 216.457 272.815C216.457 276.422 219.382 279.347 222.989 279.347Z" fill="#252024"/>
<path d="M258.938 279.347C262.546 279.347 265.47 276.422 265.47 272.815C265.47 269.207 262.546 266.283 258.938 266.283C255.331 266.283 252.406 269.207 252.406 272.815C252.406 276.422 255.331 279.347 258.938 279.347Z" fill="#252024"/>
<path d="M294.884 279.347C298.491 279.347 301.416 276.422 301.416 272.815C301.416 269.207 298.491 266.283 294.884 266.283C291.276 266.283 288.352 269.207 288.352 272.815C288.352 276.422 291.276 279.347 294.884 279.347Z" fill="#252024"/>
<path d="M330.833 279.347C334.44 279.347 337.365 276.422 337.365 272.815C337.365 269.207 334.44 266.283 330.833 266.283C327.225 266.283 324.301 269.207 324.301 272.815C324.301 276.422 327.225 279.347 330.833 279.347Z" fill="#252024"/>
<path d="M366.77 279.347C370.378 279.347 373.302 276.422 373.302 272.815C373.302 269.207 370.378 266.283 366.77 266.283C363.163 266.283 360.238 269.207 360.238 272.815C360.238 276.422 363.163 279.347 366.77 279.347Z" fill="#252024"/>
<path d="M402.72 279.347C406.327 279.347 409.252 276.422 409.252 272.815C409.252 269.207 406.327 266.283 402.72 266.283C399.112 266.283 396.188 269.207 396.188 272.815C396.188 276.422 399.112 279.347 402.72 279.347Z" fill="#252024"/>
<path d="M26.3673 295.191C29.9809 295.191 32.9103 292.262 32.9103 288.648C32.9103 285.034 29.9809 282.105 26.3673 282.105C22.7536 282.105 19.8242 285.034 19.8242 288.648C19.8242 292.262 22.7536 295.191 26.3673 295.191Z" fill="#252024"/>
<path d="M62.3126 295.191C65.9262 295.191 68.8556 292.262 68.8556 288.648C68.8556 285.034 65.9262 282.105 62.3126 282.105C58.699 282.105 55.7695 285.034 55.7695 288.648C55.7695 292.262 58.699 295.191 62.3126 295.191Z" fill="#252024"/>
<path d="M98.2501 295.191C101.864 295.191 104.793 292.262 104.793 288.648C104.793 285.034 101.864 282.105 98.2501 282.105C94.6365 282.105 91.707 285.034 91.707 288.648C91.707 292.262 94.6365 295.191 98.2501 295.191Z" fill="#252024"/>
<path d="M134.199 295.191C137.813 295.191 140.742 292.262 140.742 288.648C140.742 285.034 137.813 282.105 134.199 282.105C130.586 282.105 127.656 285.034 127.656 288.648C127.656 292.262 130.586 295.191 134.199 295.191Z" fill="#252024"/>
<path d="M170.149 295.191C173.762 295.191 176.692 292.262 176.692 288.648C176.692 285.034 173.762 282.105 170.149 282.105C166.535 282.105 163.605 285.034 163.605 288.648C163.605 292.262 166.535 295.191 170.149 295.191Z" fill="#252024"/>
<path d="M206.098 295.191C209.711 295.191 212.641 292.262 212.641 288.648C212.641 285.034 209.711 282.105 206.098 282.105C202.484 282.105 199.555 285.034 199.555 288.648C199.555 292.262 202.484 295.191 206.098 295.191Z" fill="#252024"/>
<path d="M242.066 295.191C245.68 295.191 248.61 292.262 248.61 288.648C248.61 285.034 245.68 282.105 242.066 282.105C238.453 282.105 235.523 285.034 235.523 288.648C235.523 292.262 238.453 295.191 242.066 295.191Z" fill="#252024"/>
<path d="M278.004 295.191C281.618 295.191 284.547 292.262 284.547 288.648C284.547 285.034 281.618 282.105 278.004 282.105C274.39 282.105 271.461 285.034 271.461 288.648C271.461 292.262 274.39 295.191 278.004 295.191Z" fill="#252024"/>
<path d="M313.953 295.191C317.567 295.191 320.496 292.262 320.496 288.648C320.496 285.034 317.567 282.105 313.953 282.105C310.34 282.105 307.41 285.034 307.41 288.648C307.41 292.262 310.34 295.191 313.953 295.191Z" fill="#252024"/>
<path d="M349.899 295.191C353.512 295.191 356.442 292.262 356.442 288.648C356.442 285.034 353.512 282.105 349.899 282.105C346.285 282.105 343.355 285.034 343.355 288.648C343.355 292.262 346.285 295.191 349.899 295.191Z" fill="#252024"/>
<path d="M385.848 295.191C389.461 295.191 392.391 292.262 392.391 288.648C392.391 285.034 389.461 282.105 385.848 282.105C382.234 282.105 379.305 285.034 379.305 288.648C379.305 292.262 382.234 295.191 385.848 295.191Z" fill="#252024"/>
<path d="M7.30869 311.014C10.9223 311.014 13.8517 308.084 13.8517 304.471C13.8517 300.857 10.9223 297.928 7.30869 297.928C3.69505 297.928 0.765625 300.857 0.765625 304.471C0.765625 308.084 3.69505 311.014 7.30869 311.014Z" fill="#252024"/>
<path d="M43.2579 311.014C46.8715 311.014 49.801 308.084 49.801 304.471C49.801 300.857 46.8715 297.928 43.2579 297.928C39.6443 297.928 36.7148 300.857 36.7148 304.471C36.7148 308.084 39.6443 311.014 43.2579 311.014Z" fill="#252024"/>
<path d="M79.2071 311.014C82.8208 311.014 85.7502 308.084 85.7502 304.471C85.7502 300.857 82.8208 297.928 79.2071 297.928C75.5935 297.928 72.6641 300.857 72.6641 304.471C72.6641 308.084 75.5935 311.014 79.2071 311.014Z" fill="#252024"/>
<path d="M115.156 311.014C118.77 311.014 121.699 308.084 121.699 304.471C121.699 300.857 118.77 297.928 115.156 297.928C111.543 297.928 108.613 300.857 108.613 304.471C108.613 308.084 111.543 311.014 115.156 311.014Z" fill="#252024"/>
<path d="M151.094 311.014C154.707 311.014 157.637 308.084 157.637 304.471C157.637 300.857 154.707 297.928 151.094 297.928C147.48 297.928 144.551 300.857 144.551 304.471C144.551 308.084 147.48 311.014 151.094 311.014Z" fill="#252024"/>
<path d="M187.039 311.014C190.653 311.014 193.582 308.084 193.582 304.471C193.582 300.857 190.653 297.928 187.039 297.928C183.426 297.928 180.496 300.857 180.496 304.471C180.496 308.084 183.426 311.014 187.039 311.014Z" fill="#252024"/>
<path d="M222.988 311.014C226.602 311.014 229.531 308.084 229.531 304.471C229.531 300.857 226.602 297.928 222.988 297.928C219.375 297.928 216.445 300.857 216.445 304.471C216.445 308.084 219.375 311.014 222.988 311.014Z" fill="#252024"/>
<path d="M258.938 311.014C262.551 311.014 265.481 308.084 265.481 304.471C265.481 300.857 262.551 297.928 258.938 297.928C255.324 297.928 252.395 300.857 252.395 304.471C252.395 308.084 255.324 311.014 258.938 311.014Z" fill="#252024"/>
<path d="M294.887 311.014C298.5 311.014 301.43 308.084 301.43 304.471C301.43 300.857 298.5 297.928 294.887 297.928C291.273 297.928 288.344 300.857 288.344 304.471C288.344 308.084 291.273 311.014 294.887 311.014Z" fill="#252024"/>
<path d="M330.832 311.014C334.446 311.014 337.375 308.084 337.375 304.471C337.375 300.857 334.446 297.928 330.832 297.928C327.218 297.928 324.289 300.857 324.289 304.471C324.289 308.084 327.218 311.014 330.832 311.014Z" fill="#252024"/>
<path d="M366.77 311.014C370.383 311.014 373.313 308.084 373.313 304.471C373.313 300.857 370.383 297.928 366.77 297.928C363.156 297.928 360.227 300.857 360.227 304.471C360.227 308.084 363.156 311.014 366.77 311.014Z" fill="#252024"/>
<path d="M402.719 311.014C406.332 311.014 409.262 308.084 409.262 304.471C409.262 300.857 406.332 297.928 402.719 297.928C399.105 297.928 396.176 300.857 396.176 304.471C396.176 308.084 399.105 311.014 402.719 311.014Z" fill="#252024"/>
<path d="M26.3641 326.825C29.9716 326.825 32.8961 323.901 32.8961 320.293C32.8961 316.686 29.9716 313.761 26.3641 313.761C22.7565 313.761 19.832 316.686 19.832 320.293C19.832 323.901 22.7565 326.825 26.3641 326.825Z" fill="#252024"/>
<path d="M62.3133 326.825C65.9208 326.825 68.8453 323.901 68.8453 320.293C68.8453 316.686 65.9208 313.761 62.3133 313.761C58.7057 313.761 55.7812 316.686 55.7812 320.293C55.7812 323.901 58.7057 326.825 62.3133 326.825Z" fill="#252024"/>
<path d="M98.2508 326.825C101.858 326.825 104.783 323.901 104.783 320.293C104.783 316.686 101.858 313.761 98.2508 313.761C94.6432 313.761 91.7188 316.686 91.7188 320.293C91.7188 323.901 94.6432 326.825 98.2508 326.825Z" fill="#252024"/>
<path d="M134.2 326.825C137.808 326.825 140.732 323.901 140.732 320.293C140.732 316.686 137.808 313.761 134.2 313.761C130.592 313.761 127.668 316.686 127.668 320.293C127.668 323.901 130.592 326.825 134.2 326.825Z" fill="#252024"/>
<path d="M170.149 326.825C173.757 326.825 176.681 323.901 176.681 320.293C176.681 316.686 173.757 313.761 170.149 313.761C166.542 313.761 163.617 316.686 163.617 320.293C163.617 323.901 166.542 326.825 170.149 326.825Z" fill="#252024"/>
<path d="M206.095 326.825C209.702 326.825 212.627 323.901 212.627 320.293C212.627 316.686 209.702 313.761 206.095 313.761C202.487 313.761 199.562 316.686 199.562 320.293C199.562 323.901 202.487 326.825 206.095 326.825Z" fill="#252024"/>
<path d="M242.067 326.825C245.675 326.825 248.599 323.901 248.599 320.293C248.599 316.686 245.675 313.761 242.067 313.761C238.46 313.761 235.535 316.686 235.535 320.293C235.535 323.901 238.46 326.825 242.067 326.825Z" fill="#252024"/>
<path d="M278.005 326.825C281.612 326.825 284.537 323.901 284.537 320.293C284.537 316.686 281.612 313.761 278.005 313.761C274.397 313.761 271.473 316.686 271.473 320.293C271.473 323.901 274.397 326.825 278.005 326.825Z" fill="#252024"/>
<path d="M313.95 326.825C317.558 326.825 320.482 323.901 320.482 320.293C320.482 316.686 317.558 313.761 313.95 313.761C310.342 313.761 307.418 316.686 307.418 320.293C307.418 323.901 310.342 326.825 313.95 326.825Z" fill="#252024"/>
<path d="M349.899 326.825C353.507 326.825 356.431 323.901 356.431 320.293C356.431 316.686 353.507 313.761 349.899 313.761C346.292 313.761 343.367 316.686 343.367 320.293C343.367 323.901 346.292 326.825 349.899 326.825Z" fill="#252024"/>
<path d="M385.848 326.825C389.456 326.825 392.38 323.901 392.38 320.293C392.38 316.686 389.456 313.761 385.848 313.761C382.241 313.761 379.316 316.686 379.316 320.293C379.316 323.901 382.241 326.825 385.848 326.825Z" fill="#252024"/>
<path d="M7.30869 342.67C10.9223 342.67 13.8517 339.741 13.8517 336.127C13.8517 332.513 10.9223 329.584 7.30869 329.584C3.69505 329.584 0.765625 332.513 0.765625 336.127C0.765625 339.741 3.69505 342.67 7.30869 342.67Z" fill="#252024"/>
<path d="M43.2579 342.67C46.8715 342.67 49.801 339.741 49.801 336.127C49.801 332.513 46.8715 329.584 43.2579 329.584C39.6443 329.584 36.7148 332.513 36.7148 336.127C36.7148 339.741 39.6443 342.67 43.2579 342.67Z" fill="#252024"/>
<path d="M79.2071 342.67C82.8208 342.67 85.7502 339.741 85.7502 336.127C85.7502 332.513 82.8208 329.584 79.2071 329.584C75.5935 329.584 72.6641 332.513 72.6641 336.127C72.6641 339.741 75.5935 342.67 79.2071 342.67Z" fill="#252024"/>
<path d="M115.156 342.67C118.77 342.67 121.699 339.741 121.699 336.127C121.699 332.513 118.77 329.584 115.156 329.584C111.543 329.584 108.613 332.513 108.613 336.127C108.613 339.741 111.543 342.67 115.156 342.67Z" fill="#252024"/>
<path d="M151.094 342.67C154.707 342.67 157.637 339.741 157.637 336.127C157.637 332.513 154.707 329.584 151.094 329.584C147.48 329.584 144.551 332.513 144.551 336.127C144.551 339.741 147.48 342.67 151.094 342.67Z" fill="#252024"/>
<path d="M187.039 342.67C190.653 342.67 193.582 339.741 193.582 336.127C193.582 332.513 190.653 329.584 187.039 329.584C183.426 329.584 180.496 332.513 180.496 336.127C180.496 339.741 183.426 342.67 187.039 342.67Z" fill="#252024"/>
<path d="M222.988 342.67C226.602 342.67 229.531 339.741 229.531 336.127C229.531 332.513 226.602 329.584 222.988 329.584C219.375 329.584 216.445 332.513 216.445 336.127C216.445 339.741 219.375 342.67 222.988 342.67Z" fill="#252024"/>
<path d="M258.938 342.67C262.551 342.67 265.481 339.741 265.481 336.127C265.481 332.513 262.551 329.584 258.938 329.584C255.324 329.584 252.395 332.513 252.395 336.127C252.395 339.741 255.324 342.67 258.938 342.67Z" fill="#252024"/>
<path d="M294.887 342.67C298.5 342.67 301.43 339.741 301.43 336.127C301.43 332.513 298.5 329.584 294.887 329.584C291.273 329.584 288.344 332.513 288.344 336.127C288.344 339.741 291.273 342.67 294.887 342.67Z" fill="#252024"/>
<path d="M330.832 342.67C334.446 342.67 337.375 339.741 337.375 336.127C337.375 332.513 334.446 329.584 330.832 329.584C327.218 329.584 324.289 332.513 324.289 336.127C324.289 339.741 327.218 342.67 330.832 342.67Z" fill="#252024"/>
<path d="M366.77 342.67C370.383 342.67 373.313 339.741 373.313 336.127C373.313 332.513 370.383 329.584 366.77 329.584C363.156 329.584 360.227 332.513 360.227 336.127C360.227 339.741 363.156 342.67 366.77 342.67Z" fill="#252024"/>
<path d="M402.719 342.67C406.332 342.67 409.262 339.741 409.262 336.127C409.262 332.513 406.332 329.584 402.719 329.584C399.105 329.584 396.176 332.513 396.176 336.127C396.176 339.741 399.105 342.67 402.719 342.67Z" fill="#252024"/>
<path d="M26.3641 358.481C29.9716 358.481 32.8961 355.557 32.8961 351.949C32.8961 348.342 29.9716 345.417 26.3641 345.417C22.7565 345.417 19.832 348.342 19.832 351.949C19.832 355.557 22.7565 358.481 26.3641 358.481Z" fill="#252024"/>
<path d="M62.3133 358.481C65.9208 358.481 68.8453 355.557 68.8453 351.949C68.8453 348.342 65.9208 345.417 62.3133 345.417C58.7057 345.417 55.7812 348.342 55.7812 351.949C55.7812 355.557 58.7057 358.481 62.3133 358.481Z" fill="#252024"/>
<path d="M98.2508 358.481C101.858 358.481 104.783 355.557 104.783 351.949C104.783 348.342 101.858 345.417 98.2508 345.417C94.6432 345.417 91.7188 348.342 91.7188 351.949C91.7188 355.557 94.6432 358.481 98.2508 358.481Z" fill="#252024"/>
<path d="M134.2 358.481C137.808 358.481 140.732 355.557 140.732 351.949C140.732 348.342 137.808 345.417 134.2 345.417C130.592 345.417 127.668 348.342 127.668 351.949C127.668 355.557 130.592 358.481 134.2 358.481Z" fill="#252024"/>
<path d="M170.149 358.481C173.757 358.481 176.681 355.557 176.681 351.949C176.681 348.342 173.757 345.417 170.149 345.417C166.542 345.417 163.617 348.342 163.617 351.949C163.617 355.557 166.542 358.481 170.149 358.481Z" fill="#252024"/>
<path d="M206.095 358.481C209.702 358.481 212.627 355.557 212.627 351.949C212.627 348.342 209.702 345.417 206.095 345.417C202.487 345.417 199.562 348.342 199.562 351.949C199.562 355.557 202.487 358.481 206.095 358.481Z" fill="#252024"/>
<path d="M242.067 358.481C245.675 358.481 248.599 355.557 248.599 351.949C248.599 348.342 245.675 345.417 242.067 345.417C238.46 345.417 235.535 348.342 235.535 351.949C235.535 355.557 238.46 358.481 242.067 358.481Z" fill="#252024"/>
<path d="M278.005 358.481C281.612 358.481 284.537 355.557 284.537 351.949C284.537 348.342 281.612 345.417 278.005 345.417C274.397 345.417 271.473 348.342 271.473 351.949C271.473 355.557 274.397 358.481 278.005 358.481Z" fill="#252024"/>
<path d="M313.95 358.481C317.558 358.481 320.482 355.557 320.482 351.949C320.482 348.342 317.558 345.417 313.95 345.417C310.342 345.417 307.418 348.342 307.418 351.949C307.418 355.557 310.342 358.481 313.95 358.481Z" fill="#252024"/>
<path d="M349.899 358.481C353.507 358.481 356.431 355.557 356.431 351.949C356.431 348.342 353.507 345.417 349.899 345.417C346.292 345.417 343.367 348.342 343.367 351.949C343.367 355.557 346.292 358.481 349.899 358.481Z" fill="#252024"/>
<path d="M385.848 358.481C389.456 358.481 392.38 355.557 392.38 351.949C392.38 348.342 389.456 345.417 385.848 345.417C382.241 345.417 379.316 348.342 379.316 351.949C379.316 355.557 382.241 358.481 385.848 358.481Z" fill="#252024"/>
<path d="M7.30937 374.304C10.9169 374.304 13.8414 371.379 13.8414 367.772C13.8414 364.164 10.9169 361.24 7.30937 361.24C3.70183 361.24 0.777344 364.164 0.777344 367.772C0.777344 371.379 3.70183 374.304 7.30937 374.304Z" fill="#252024"/>
<path d="M43.2586 374.304C46.8661 374.304 49.7906 371.379 49.7906 367.772C49.7906 364.164 46.8661 361.24 43.2586 361.24C39.651 361.24 36.7266 364.164 36.7266 367.772C36.7266 371.379 39.651 374.304 43.2586 374.304Z" fill="#252024"/>
<path d="M79.2078 374.304C82.8154 374.304 85.7399 371.379 85.7399 367.772C85.7399 364.164 82.8154 361.24 79.2078 361.24C75.6003 361.24 72.6758 364.164 72.6758 367.772C72.6758 371.379 75.6003 374.304 79.2078 374.304Z" fill="#252024"/>
<path d="M115.157 374.304C118.765 374.304 121.689 371.379 121.689 367.772C121.689 364.164 118.765 361.24 115.157 361.24C111.549 361.24 108.625 364.164 108.625 367.772C108.625 371.379 111.549 374.304 115.157 374.304Z" fill="#252024"/>
<path d="M151.091 374.304C154.698 374.304 157.623 371.379 157.623 367.772C157.623 364.164 154.698 361.24 151.091 361.24C147.483 361.24 144.559 364.164 144.559 367.772C144.559 371.379 147.483 374.304 151.091 374.304Z" fill="#252024"/>
<path d="M187.04 374.304C190.647 374.304 193.572 371.379 193.572 367.772C193.572 364.164 190.647 361.24 187.04 361.24C183.432 361.24 180.508 364.164 180.508 367.772C180.508 371.379 183.432 374.304 187.04 374.304Z" fill="#252024"/>
<path d="M222.989 374.304C226.597 374.304 229.521 371.379 229.521 367.772C229.521 364.164 226.597 361.24 222.989 361.24C219.382 361.24 216.457 364.164 216.457 367.772C216.457 371.379 219.382 374.304 222.989 374.304Z" fill="#252024"/>
<path d="M258.938 374.304C262.546 374.304 265.47 371.379 265.47 367.772C265.47 364.164 262.546 361.24 258.938 361.24C255.331 361.24 252.406 364.164 252.406 367.772C252.406 371.379 255.331 374.304 258.938 374.304Z" fill="#252024"/>
<path d="M294.884 374.304C298.491 374.304 301.416 371.379 301.416 367.772C301.416 364.164 298.491 361.24 294.884 361.24C291.276 361.24 288.352 364.164 288.352 367.772C288.352 371.379 291.276 374.304 294.884 374.304Z" fill="#252024"/>
<path d="M330.833 374.304C334.44 374.304 337.365 371.379 337.365 367.772C337.365 364.164 334.44 361.24 330.833 361.24C327.225 361.24 324.301 364.164 324.301 367.772C324.301 371.379 327.225 374.304 330.833 374.304Z" fill="#252024"/>
<path d="M366.77 374.304C370.378 374.304 373.302 371.379 373.302 367.772C373.302 364.164 370.378 361.24 366.77 361.24C363.163 361.24 360.238 364.164 360.238 367.772C360.238 371.379 363.163 374.304 366.77 374.304Z" fill="#252024"/>
<path d="M402.72 374.304C406.327 374.304 409.252 371.379 409.252 367.772C409.252 364.164 406.327 361.24 402.72 361.24C399.112 361.24 396.188 364.164 396.188 367.772C396.188 371.379 399.112 374.304 402.72 374.304Z" fill="#252024"/>
<path d="M26.3673 390.137C29.9809 390.137 32.9103 387.208 32.9103 383.594C32.9103 379.981 29.9809 377.051 26.3673 377.051C22.7536 377.051 19.8242 379.981 19.8242 383.594C19.8242 387.208 22.7536 390.137 26.3673 390.137Z" fill="#252024"/>
<path d="M62.3126 390.137C65.9262 390.137 68.8556 387.208 68.8556 383.594C68.8556 379.981 65.9262 377.051 62.3126 377.051C58.699 377.051 55.7695 379.981 55.7695 383.594C55.7695 387.208 58.699 390.137 62.3126 390.137Z" fill="#252024"/>
<path d="M98.2501 390.137C101.864 390.137 104.793 387.208 104.793 383.594C104.793 379.981 101.864 377.051 98.2501 377.051C94.6365 377.051 91.707 379.981 91.707 383.594C91.707 387.208 94.6365 390.137 98.2501 390.137Z" fill="#252024"/>
<path d="M134.199 390.137C137.813 390.137 140.742 387.208 140.742 383.594C140.742 379.981 137.813 377.051 134.199 377.051C130.586 377.051 127.656 379.981 127.656 383.594C127.656 387.208 130.586 390.137 134.199 390.137Z" fill="#252024"/>
<path d="M170.149 390.137C173.762 390.137 176.692 387.208 176.692 383.594C176.692 379.981 173.762 377.051 170.149 377.051C166.535 377.051 163.605 379.981 163.605 383.594C163.605 387.208 166.535 390.137 170.149 390.137Z" fill="#252024"/>
<path d="M206.098 390.137C209.711 390.137 212.641 387.208 212.641 383.594C212.641 379.981 209.711 377.051 206.098 377.051C202.484 377.051 199.555 379.981 199.555 383.594C199.555 387.208 202.484 390.137 206.098 390.137Z" fill="#252024"/>
<path d="M242.066 390.137C245.68 390.137 248.61 387.208 248.61 383.594C248.61 379.981 245.68 377.051 242.066 377.051C238.453 377.051 235.523 379.981 235.523 383.594C235.523 387.208 238.453 390.137 242.066 390.137Z" fill="#252024"/>
<path d="M278.004 390.137C281.618 390.137 284.547 387.208 284.547 383.594C284.547 379.981 281.618 377.051 278.004 377.051C274.39 377.051 271.461 379.981 271.461 383.594C271.461 387.208 274.39 390.137 278.004 390.137Z" fill="#252024"/>
<path d="M313.953 390.137C317.567 390.137 320.496 387.208 320.496 383.594C320.496 379.981 317.567 377.051 313.953 377.051C310.34 377.051 307.41 379.981 307.41 383.594C307.41 387.208 310.34 390.137 313.953 390.137Z" fill="#252024"/>
<path d="M349.899 390.137C353.512 390.137 356.442 387.208 356.442 383.594C356.442 379.981 353.512 377.051 349.899 377.051C346.285 377.051 343.355 379.981 343.355 383.594C343.355 387.208 346.285 390.137 349.899 390.137Z" fill="#252024"/>
<path d="M385.848 390.137C389.461 390.137 392.391 387.208 392.391 383.594C392.391 379.981 389.461 377.051 385.848 377.051C382.234 377.051 379.305 379.981 379.305 383.594C379.305 387.208 382.234 390.137 385.848 390.137Z" fill="#252024"/>
<path d="M7.30937 405.96C10.9169 405.96 13.8414 403.036 13.8414 399.428C13.8414 395.821 10.9169 392.896 7.30937 392.896C3.70183 392.896 0.777344 395.821 0.777344 399.428C0.777344 403.036 3.70183 405.96 7.30937 405.96Z" fill="#252024"/>
<path d="M43.2586 405.96C46.8661 405.96 49.7906 403.036 49.7906 399.428C49.7906 395.821 46.8661 392.896 43.2586 392.896C39.651 392.896 36.7266 395.821 36.7266 399.428C36.7266 403.036 39.651 405.96 43.2586 405.96Z" fill="#252024"/>
<path d="M79.2078 405.96C82.8154 405.96 85.7399 403.036 85.7399 399.428C85.7399 395.821 82.8154 392.896 79.2078 392.896C75.6003 392.896 72.6758 395.821 72.6758 399.428C72.6758 403.036 75.6003 405.96 79.2078 405.96Z" fill="#252024"/>
<path d="M115.157 405.96C118.765 405.96 121.689 403.036 121.689 399.428C121.689 395.821 118.765 392.896 115.157 392.896C111.549 392.896 108.625 395.821 108.625 399.428C108.625 403.036 111.549 405.96 115.157 405.96Z" fill="#252024"/>
<path d="M151.091 405.96C154.698 405.96 157.623 403.036 157.623 399.428C157.623 395.821 154.698 392.896 151.091 392.896C147.483 392.896 144.559 395.821 144.559 399.428C144.559 403.036 147.483 405.96 151.091 405.96Z" fill="#252024"/>
<path d="M187.04 405.96C190.647 405.96 193.572 403.036 193.572 399.428C193.572 395.821 190.647 392.896 187.04 392.896C183.432 392.896 180.508 395.821 180.508 399.428C180.508 403.036 183.432 405.96 187.04 405.96Z" fill="#252024"/>
<path d="M222.989 405.96C226.597 405.96 229.521 403.036 229.521 399.428C229.521 395.821 226.597 392.896 222.989 392.896C219.382 392.896 216.457 395.821 216.457 399.428C216.457 403.036 219.382 405.96 222.989 405.96Z" fill="#252024"/>
<path d="M258.938 405.96C262.546 405.96 265.47 403.036 265.47 399.428C265.47 395.821 262.546 392.896 258.938 392.896C255.331 392.896 252.406 395.821 252.406 399.428C252.406 403.036 255.331 405.96 258.938 405.96Z" fill="#252024"/>
<path d="M294.884 405.96C298.491 405.96 301.416 403.036 301.416 399.428C301.416 395.821 298.491 392.896 294.884 392.896C291.276 392.896 288.352 395.821 288.352 399.428C288.352 403.036 291.276 405.96 294.884 405.96Z" fill="#252024"/>
<path d="M330.833 405.96C334.44 405.96 337.365 403.036 337.365 399.428C337.365 395.821 334.44 392.896 330.833 392.896C327.225 392.896 324.301 395.821 324.301 399.428C324.301 403.036 327.225 405.96 330.833 405.96Z" fill="#252024"/>
<path d="M366.77 405.96C370.378 405.96 373.302 403.036 373.302 399.428C373.302 395.821 370.378 392.896 366.77 392.896C363.163 392.896 360.238 395.821 360.238 399.428C360.238 403.036 363.163 405.96 366.77 405.96Z" fill="#252024"/>
<path d="M402.72 405.96C406.327 405.96 409.252 403.036 409.252 399.428C409.252 395.821 406.327 392.896 402.72 392.896C399.112 392.896 396.188 395.821 396.188 399.428C396.188 403.036 399.112 405.96 402.72 405.96Z" fill="#252024"/>
</g>
</g>
</svg>
