<svg width="39" height="36" viewBox="0 0 39 36" fill="none" xmlns="http://www.w3.org/2000/svg">
<path d="M28.9221 8.95172C29.0446 9.07426 29.2053 9.13561 29.3658 9.13561C29.5264 9.13561 29.687 9.07426 29.8096 8.95172L30.2533 8.50798L30.6971 8.95172C30.8196 9.07426 30.9803 9.13561 31.1408 9.13561C31.3013 9.13561 31.462 9.07426 31.5845 8.95172C31.8296 8.70663 31.8296 8.30933 31.5845 8.06424L31.1409 7.6205L31.5847 7.17676C31.8298 6.93167 31.8298 6.53438 31.5847 6.28929C31.3396 6.0442 30.9423 6.0442 30.6972 6.28929L30.2535 6.73303L29.8097 6.28929C29.5646 6.0442 29.1673 6.0442 28.9223 6.28929C28.6772 6.53438 28.6772 6.93167 28.9223 7.17676L29.3658 7.6205L28.9221 8.06424C28.677 8.30949 28.677 8.70663 28.9221 8.95172Z" fill="#B9B9B9"/>
<path d="M12.0495 8.87539C12.3961 8.87539 12.6771 8.59439 12.6771 8.24775C12.6771 7.90112 12.3961 7.62012 12.0495 7.62012C11.7029 7.62012 11.4219 7.90112 11.4219 8.24775C11.4219 8.59439 11.7029 8.87539 12.0495 8.87539Z" fill="#B9B9B9"/>
<path d="M15.8165 4.48212C16.8548 4.48212 17.6994 3.63748 17.6994 2.59922C17.6994 1.56095 16.8548 0.716309 15.8165 0.716309C14.7782 0.716309 13.9336 1.56095 13.9336 2.59922C13.9336 3.63748 14.7781 4.48212 15.8165 4.48212ZM15.8165 1.97158C16.1625 1.97158 16.4441 2.25323 16.4441 2.59922C16.4441 2.9452 16.1625 3.22685 15.8165 3.22685C15.4705 3.22685 15.1889 2.9452 15.1889 2.59922C15.1889 2.25323 15.4705 1.97158 15.8165 1.97158Z" fill="#B9B9B9"/>
<path d="M12.1745 23.9388H27.151C27.3983 23.9388 27.623 23.7935 27.7237 23.5677C27.8249 23.3416 27.7838 23.0774 27.6189 22.8929L20.2898 14.6913C20.1725 14.5598 20.0049 14.4838 19.8287 14.4819C19.8262 14.4819 19.8241 14.4819 19.8219 14.4819C19.6479 14.4819 19.4818 14.5543 19.3628 14.6814L11.7154 22.883C11.545 23.0659 11.4993 23.3322 11.599 23.5615C11.6986 23.7906 11.9249 23.9388 12.1745 23.9388ZM19.8122 16.0407L25.7484 22.6836H13.6179L19.8122 16.0407Z" fill="#B9B9B9"/>
<path d="M38.8405 27.9139L35.414 24.0797L37.4822 22.0115C37.8973 21.5965 38.1259 21.0449 38.1259 20.4581C38.1259 19.8716 37.8973 19.3199 37.4826 18.905C37.4823 18.905 37.4822 18.905 37.4822 18.905C37.4822 18.905 37.4822 18.905 37.4822 18.9047C36.652 18.0748 35.2049 18.0751 34.3759 18.905L33.7108 19.5701C33.7105 19.5704 33.7102 19.5704 33.71 19.5708C33.7098 19.5711 33.7097 19.5714 33.7094 19.5715L32.482 20.7989L20.3696 7.24447C20.2522 7.11298 20.0847 7.03704 19.9085 7.03516C19.9059 7.03516 19.9039 7.03516 19.9017 7.03516C19.7277 7.03516 19.5615 7.10749 19.4426 7.23459L0.168531 27.904C-0.00187209 28.087 -0.0475327 28.3533 0.0521045 28.5825C0.151742 28.8114 0.377848 28.9597 0.627646 28.9597H24.3206L23.5026 29.7777C23.4356 29.8447 23.3907 29.9239 23.3604 30.0076C23.3584 30.0132 23.3529 30.0171 23.351 30.0228L22.2417 33.3513C22.1665 33.5769 22.2252 33.8256 22.3934 33.9937C22.513 34.1136 22.6735 34.1776 22.8372 34.1776C22.9037 34.1776 22.9705 34.1672 23.0358 34.1454L26.3643 33.0361C26.3701 33.0342 26.3739 33.0287 26.3795 33.0266C26.4632 32.9962 26.5424 32.9515 26.6094 32.8845L30.5337 28.9599H38.3724C38.6197 28.9599 38.8444 28.8146 38.9451 28.5885C39.0463 28.3625 39.0054 28.0984 38.8405 27.9139ZM26.1655 31.5531L24.834 30.2216L34.1541 20.902L35.4853 22.2332L26.1655 31.5531ZM36.5943 19.7923C36.5946 19.7923 36.5946 19.7923 36.5946 19.7926C36.7724 19.9701 36.8705 20.2067 36.8705 20.4579C36.8705 20.7091 36.7724 20.9458 36.5946 21.1235L36.3726 21.3456L35.0415 20.0145L35.2637 19.7923C35.6186 19.4369 36.2395 19.4369 36.5943 19.7923ZM19.8918 8.59358L31.5928 21.6878L26.4856 26.7948V26.4493C26.4856 26.1027 26.2046 25.8217 25.858 25.8217C25.5114 25.8217 25.2303 26.1027 25.2303 26.4493V27.7046H23.3474V26.4493C23.3474 26.1027 23.0664 25.8217 22.7198 25.8217C22.3732 25.8217 22.0922 26.1027 22.0922 26.4493V27.7046H20.2092V26.4493C20.2092 26.1027 19.9282 25.8217 19.5816 25.8217C19.235 25.8217 18.954 26.1027 18.954 26.4493V27.7046H17.0711V26.4493C17.0711 26.1027 16.79 25.8217 16.4434 25.8217C16.0968 25.8217 15.8158 26.1027 15.8158 26.4493V27.7046H13.9329V26.4493C13.9329 26.1027 13.6519 25.8217 13.3053 25.8217C12.9586 25.8217 12.6776 26.1027 12.6776 26.4493V27.7046H10.7947V26.4493C10.7947 26.1027 10.5137 25.8217 10.1671 25.8217C9.82047 25.8217 9.53944 26.1027 9.53944 26.4493V27.7046H7.65654V26.4493C7.65654 26.1027 7.37551 25.8217 7.0289 25.8217C6.68229 25.8217 6.40127 26.1027 6.40127 26.4493V27.7046H2.07105L19.8918 8.59358ZM24.2206 31.3835L25.0036 32.1665L23.8293 32.5578L24.2206 31.3835ZM31.789 27.7046L34.5248 24.9687L36.9698 27.7046H31.789Z" fill="#B9B9B9"/>
<path d="M3.26181 34.6084H2.00654C1.65993 34.6084 1.37891 34.8894 1.37891 35.236C1.37891 35.5826 1.65993 35.8637 2.00654 35.8637H3.26181C3.60842 35.8637 3.88945 35.5826 3.88945 35.236C3.88945 34.8894 3.60842 34.6084 3.26181 34.6084Z" fill="#B9B9B9"/>
<path d="M28.3686 34.6084H25.8581C25.5115 34.6084 25.2305 34.8894 25.2305 35.236C25.2305 35.5826 25.5115 35.8637 25.8581 35.8637H28.3686C28.7153 35.8637 28.9963 35.5826 28.9963 35.236C28.9963 34.8894 28.7153 34.6084 28.3686 34.6084Z" fill="#B9B9B9"/>
<path d="M23.3491 34.6084H20.8386C20.492 34.6084 20.2109 34.8894 20.2109 35.236C20.2109 35.5826 20.492 35.8637 20.8386 35.8637H23.3491C23.6957 35.8637 23.9768 35.5826 23.9768 35.236C23.9768 34.8894 23.6957 34.6084 23.3491 34.6084Z" fill="#B9B9B9"/>
<path d="M13.3061 34.6084H10.7956C10.449 34.6084 10.168 34.8894 10.168 35.236C10.168 35.5826 10.449 35.8637 10.7956 35.8637H13.3061C13.6528 35.8637 13.9338 35.5826 13.9338 35.236C13.9338 34.8894 13.6528 34.6084 13.3061 34.6084Z" fill="#B9B9B9"/>
<path d="M8.28271 34.6084H5.77217C5.42556 34.6084 5.14453 34.8894 5.14453 35.236C5.14453 35.5826 5.42556 35.8637 5.77217 35.8637H8.28271C8.62932 35.8637 8.91035 35.5826 8.91035 35.236C8.91035 34.8894 8.62932 34.6084 8.28271 34.6084Z" fill="#B9B9B9"/>
<path d="M18.3257 34.6084H15.8151C15.4685 34.6084 15.1875 34.8894 15.1875 35.236C15.1875 35.5826 15.4685 35.8637 15.8151 35.8637H18.3257C18.6723 35.8637 18.9533 35.5826 18.9533 35.236C18.9533 34.8894 18.6723 34.6084 18.3257 34.6084Z" fill="#B9B9B9"/>
<path d="M32.1329 34.6084H30.8776C30.531 34.6084 30.25 34.8894 30.25 35.236C30.25 35.5826 30.531 35.8637 30.8776 35.8637H32.1329C32.4795 35.8637 32.7605 35.5826 32.7605 35.236C32.7605 34.8894 32.4795 34.6084 32.1329 34.6084Z" fill="#B9B9B9"/>
</svg>
