<svg width="40" height="41" viewBox="0 0 40 41" fill="none" xmlns="http://www.w3.org/2000/svg">
<path d="M39.375 24.6138H26.875V23.3638H27.5C27.8452 23.3638 28.125 23.0839 28.125 22.7388C28.125 22.3936 27.8452 22.1138 27.5 22.1138H26.875V21.4888C26.875 20.1081 27.9943 18.9888 29.375 18.9888C30.7557 18.9888 31.875 20.1081 31.875 21.4888C31.875 21.8339 32.1548 22.1138 32.5 22.1138C32.8452 22.1138 33.125 21.8339 33.125 21.4888C33.125 19.4177 31.4461 17.7388 29.375 17.7388C27.3039 17.7388 25.625 19.4177 25.625 21.4888V24.6138H15.1375C15.4496 24.2721 15.6234 23.8265 15.625 23.3638V19.6138C15.625 19.2686 15.3452 18.9888 15 18.9888H5.625C5.27984 18.9888 5 19.2686 5 19.6138V23.3638C5.00164 23.8265 5.17539 24.2721 5.4875 24.6138H0.625C0.279844 24.6138 0 24.8936 0 25.2388V40.2388C0 40.5839 0.279844 40.8638 0.625 40.8638H39.375C39.7202 40.8638 40 40.5839 40 40.2388V25.2388C40 24.8936 39.7202 24.6138 39.375 24.6138ZM6.25 20.2388H14.375V23.3638C14.375 23.7089 14.0952 23.9888 13.75 23.9888H6.875C6.52984 23.9888 6.25 23.7089 6.25 23.3638V20.2388ZM10 39.6138H1.25V32.1138H10V39.6138ZM10 30.8638H1.25V25.8638H3.125C3.125 26.2089 3.40484 26.4888 3.75 26.4888H7.5C7.84516 26.4888 8.125 26.2089 8.125 25.8638H10V30.8638ZM28.75 39.6138H11.25V25.8638H28.75V39.6138ZM38.75 39.6138H30V32.1138H38.75V39.6138ZM38.75 30.8638H30V25.8638H31.875C31.875 26.2089 32.1548 26.4888 32.5 26.4888H36.25C36.5952 26.4888 36.875 26.2089 36.875 25.8638H38.75V30.8638Z" fill="#B9B9B9"/>
<path d="M12.5 35.2388H27.5C27.8452 35.2388 28.125 34.9589 28.125 34.6138V28.3638C28.125 28.0186 27.8452 27.7388 27.5 27.7388H12.5C12.1548 27.7388 11.875 28.0186 11.875 28.3638V34.6138C11.875 34.9589 12.1548 35.2388 12.5 35.2388ZM13.125 28.9888H26.875V33.9888H13.125V28.9888Z" fill="#B9B9B9"/>
<path d="M23.75 37.1138H16.25C15.9048 37.1138 15.625 37.3936 15.625 37.7388C15.625 38.0839 15.9048 38.3638 16.25 38.3638H23.75C24.0952 38.3638 24.375 38.0839 24.375 37.7388C24.375 37.3936 24.0952 37.1138 23.75 37.1138Z" fill="#B9B9B9"/>
<path d="M6.875 10.2388H33.125C33.4702 10.2388 33.75 9.95893 33.75 9.61377V1.48877C33.75 1.14361 33.4702 0.86377 33.125 0.86377H6.875C6.52984 0.86377 6.25 1.14361 6.25 1.48877V9.61377C6.25 9.95893 6.52984 10.2388 6.875 10.2388ZM20.625 2.11377H32.5V8.98877H20.625V2.11377ZM7.5 2.11377H19.375V8.98877H7.5V2.11377Z" fill="#B9B9B9"/>
<path d="M15.625 5.23877H10.625C10.2798 5.23877 10 5.51861 10 5.86377C10 6.20893 10.2798 6.48877 10.625 6.48877H15.625C15.9702 6.48877 16.25 6.20893 16.25 5.86377C16.25 5.51861 15.9702 5.23877 15.625 5.23877Z" fill="#B9B9B9"/>
<path d="M29.375 5.23877H24.375C24.0298 5.23877 23.75 5.51861 23.75 5.86377C23.75 6.20893 24.0298 6.48877 24.375 6.48877H29.375C29.7202 6.48877 30 6.20893 30 5.86377C30 5.51861 29.7202 5.23877 29.375 5.23877Z" fill="#B9B9B9"/>
<path d="M7.125 16.3013C6.60695 16.5996 6.27703 17.1416 6.25 17.7388C6.25 18.0839 6.52984 18.3638 6.875 18.3638C7.22016 18.3638 7.5 18.0839 7.5 17.7388C7.5 17.6069 7.5625 17.5375 7.875 17.3013C8.39305 17.003 8.72297 16.461 8.75 15.8638C8.72297 15.2666 8.39305 14.7246 7.875 14.4263C7.55938 14.1894 7.5 14.12 7.5 13.9888C7.5 13.8575 7.5625 13.7888 7.875 13.5513C8.39305 13.253 8.72297 12.711 8.75 12.1138C8.75 11.7686 8.47016 11.4888 8.125 11.4888C7.77984 11.4888 7.5 11.7686 7.5 12.1138C7.5 12.2444 7.4375 12.3138 7.125 12.5513C6.60695 12.8496 6.27703 13.3916 6.25 13.9888C6.27703 14.586 6.60695 15.128 7.125 15.4263C7.4375 15.6631 7.5 15.7325 7.5 15.8638C7.5 15.995 7.4375 16.0638 7.125 16.3013Z" fill="#B9B9B9"/>
<path d="M11 13.5513C11.518 13.253 11.848 12.711 11.875 12.1138C11.875 11.7686 11.5952 11.4888 11.25 11.4888C10.9048 11.4888 10.625 11.7686 10.625 12.1138C10.625 12.2444 10.5625 12.3138 10.25 12.5513C9.73195 12.8496 9.40203 13.3916 9.375 13.9888C9.40203 14.586 9.73195 15.128 10.25 15.4263C10.5625 15.6631 10.625 15.7325 10.625 15.8638C10.625 15.995 10.5625 16.065 10.25 16.3013C9.73195 16.5996 9.40203 17.1416 9.375 17.7388C9.375 18.0839 9.65484 18.3638 10 18.3638C10.3452 18.3638 10.625 18.0839 10.625 17.7388C10.625 17.6069 10.6875 17.5375 11 17.3013C11.518 17.003 11.848 16.461 11.875 15.8638C11.848 15.2666 11.518 14.7246 11 14.4263C10.6875 14.1894 10.625 14.12 10.625 13.9888C10.625 13.8575 10.6875 13.7869 11 13.5513Z" fill="#B9B9B9"/>
<path d="M14.125 13.5513C14.643 13.253 14.973 12.711 15 12.1138C15 11.7686 14.7202 11.4888 14.375 11.4888C14.0298 11.4888 13.75 11.7686 13.75 12.1138C13.75 12.2444 13.6875 12.3138 13.375 12.5513C12.857 12.8496 12.527 13.3916 12.5 13.9888C12.527 14.586 12.857 15.128 13.375 15.4263C13.6875 15.6631 13.75 15.7325 13.75 15.8638C13.75 15.995 13.6875 16.065 13.375 16.3013C12.857 16.5996 12.527 17.1416 12.5 17.7388C12.5 18.0839 12.7798 18.3638 13.125 18.3638C13.4702 18.3638 13.75 18.0839 13.75 17.7388C13.75 17.6069 13.8125 17.5375 14.125 17.3013C14.643 17.003 14.973 16.461 15 15.8638C14.973 15.2666 14.643 14.7246 14.125 14.4263C13.8125 14.1894 13.75 14.12 13.75 13.9888C13.75 13.8575 13.8125 13.7869 14.125 13.5513Z" fill="#B9B9B9"/>
</svg>
